<?xml version="1.0" encoding="UTF-8"?>
<svg id="Layer_1" data-name="Layer 1" xmlns="http://www.w3.org/2000/svg" viewBox="0 0 421 219">
  <defs>
    <style>
      .cls-1 {
        fill: #006745;
      }

      .cls-2 {
        fill: #fff;
      }
    </style>
  </defs>
  <rect class="cls-1" x="-5" y="-2.5" width="428" height="224"/>
  <g>
    <g>
      <path class="cls-2" d="M78.89,40.17c.15.35.34.65.58.91s.52.46.85.6c.33.15.71.22,1.13.22.54,0,.98-.09,1.33-.26.35-.17.63-.4.84-.68.21-.28.36-.59.44-.92.08-.33.12-.66.12-.97,0-.46-.14-.86-.42-1.23-.28-.36-.63-.7-1.06-1.02-.43-.32-.88-.64-1.38-.95-.49-.32-.95-.66-1.38-1.03-.43-.37-.78-.78-1.06-1.23-.28-.45-.42-.97-.42-1.55,0-.43.09-.84.27-1.23.18-.39.43-.73.74-1.03s.66-.53,1.06-.7c.4-.18.81-.26,1.24-.26s.85.09,1.26.26c.41.17.77.41,1.1.7.32.29.58.63.77,1.03.19.39.29.8.29,1.23h-2.52c0-.21-.07-.39-.22-.54-.15-.15-.33-.23-.55-.23-.2,0-.37.08-.53.23-.15.15-.23.33-.23.54,0,.28.15.55.44.8s.66.52,1.09.8c.44.28.91.59,1.42.92.51.33.98.72,1.42,1.16.44.44.8.94,1.09,1.5s.44,1.21.44,1.94c0,.6-.11,1.21-.33,1.86-.22.64-.55,1.23-.99,1.75-.44.53-.99.96-1.66,1.3-.67.34-1.44.52-2.31.52s-1.68-.14-2.37-.42c-.69-.28-1.28-.67-1.77-1.16-.49-.49-.88-1.07-1.17-1.75-.29-.68-.47-1.42-.55-2.22h2.68c.05.4.15.77.3,1.12Z"/>
      <path class="cls-2" d="M93.72,44.43h-2.68v-15.38h2.68v15.38Z"/>
      <path class="cls-2" d="M97.57,31.73v-2.68h9.44l-5.62,12.7h5.34v2.68h-9.42l5.62-12.7h-5.36Z"/>
      <path class="cls-2" d="M110.69,29.05h7.87v2.7h-5.18v2.14h3.57v2.87h-3.57v4.99h6.08v2.68h-8.76v-15.38Z"/>
    </g>
    <g>
      <path class="cls-2" d="M179.83,31.56c-.23-.04-.47-.06-.72-.06-.69,0-1.33.14-1.91.42-.58.28-1.09.66-1.51,1.15-.43.48-.76,1.05-1.01,1.7-.25.65-.37,1.33-.37,2.06s.12,1.4.37,2.03c.25.63.58,1.18,1.01,1.64.43.46.93.82,1.51,1.09.58.26,1.22.39,1.91.39.48,0,.94-.07,1.38-.21v2.63c-.18.02-.34.05-.51.07-.14.02-.29.04-.45.05-.16.01-.3.02-.43.02-1.03,0-1.99-.2-2.88-.6-.89-.4-1.67-.95-2.34-1.65-.67-.7-1.19-1.51-1.57-2.44-.38-.93-.57-1.94-.57-3.01s.19-2.09.57-3.04.9-1.79,1.57-2.5c.67-.72,1.45-1.29,2.34-1.71s1.85-.63,2.88-.63c.13,0,.27,0,.43.02.16.01.31.03.45.05.16.02.33.05.51.07v2.64c-.21-.07-.43-.12-.67-.17Z"/>
      <path class="cls-2" d="M186.18,36.58v7.85h-2.68v-15.38h2.68v4.83h2.68v-4.83h2.68v15.38h-2.68v-7.85h-2.68ZM186.18,33.88h2.68-2.68Z"/>
      <path class="cls-2" d="M196.22,29.05h7.87v2.7h-5.18v2.14h3.57v2.87h-3.57v4.99h6.08v2.68h-8.76v-15.38Z"/>
      <path class="cls-2" d="M209.89,40.17c.15.35.34.65.58.91s.52.46.85.6c.33.15.71.22,1.13.22.54,0,.98-.09,1.33-.26.35-.17.63-.4.84-.68.21-.28.36-.59.44-.92.08-.33.12-.66.12-.97,0-.46-.14-.86-.42-1.23-.28-.36-.63-.7-1.06-1.02-.43-.32-.88-.64-1.38-.95-.49-.32-.95-.66-1.38-1.03-.43-.37-.78-.78-1.06-1.23-.28-.45-.42-.97-.42-1.55,0-.43.09-.84.27-1.23.18-.39.43-.73.74-1.03s.66-.53,1.06-.7c.4-.18.81-.26,1.24-.26s.85.09,1.26.26c.41.17.77.41,1.1.7.32.29.58.63.77,1.03.19.39.29.8.29,1.23h-2.52c0-.21-.07-.39-.22-.54-.15-.15-.33-.23-.55-.23-.2,0-.37.08-.53.23-.15.15-.23.33-.23.54,0,.28.15.55.44.8s.66.52,1.09.8c.44.28.91.59,1.42.92.51.33.98.72,1.42,1.16.44.44.8.94,1.09,1.5s.44,1.21.44,1.94c0,.6-.11,1.21-.33,1.86-.22.64-.55,1.23-.99,1.75-.44.53-.99.96-1.66,1.3-.67.34-1.44.52-2.31.52s-1.68-.14-2.37-.42c-.69-.28-1.28-.67-1.77-1.16-.49-.49-.88-1.07-1.17-1.75-.29-.68-.47-1.42-.55-2.22h2.68c.05.4.15.77.3,1.12Z"/>
      <path class="cls-2" d="M222.38,44.43v-12.68h-3.33v-2.7h9.34v2.7h-3.33v12.68h-2.68Z"/>
    </g>
    <g>
      <path class="cls-2" d="M277.74,41.75h6.08v2.68h-8.76v-15.38h2.68v12.7Z"/>
      <path class="cls-2" d="M287.07,29.05h7.87v2.7h-5.18v2.14h3.57v2.87h-3.57v4.99h6.08v2.68h-8.76v-15.38Z"/>
      <path class="cls-2" d="M301.4,44.43h-2.68v-15.75l6.41,8.16v-7.79h2.68v15.73l-6.41-8.16v7.81Z"/>
      <path class="cls-2" d="M317.1,32.17c-.59.26-1.09.61-1.5,1.07-.41.46-.72,1-.94,1.63-.22.63-.32,1.33-.32,2.08,0,1.41.34,2.52,1.03,3.31.69.79,1.7,1.28,3.03,1.45v-4.76h-1.56v-2.66h4.05v10.07c-.27.09-.54.15-.81.16s-.6.02-.97.02c-1.05,0-2.04-.19-2.97-.56-.93-.37-1.73-.9-2.42-1.58-.68-.68-1.22-1.48-1.62-2.4-.4-.92-.6-1.94-.6-3.05s.2-2.15.6-3.12c.4-.97.94-1.81,1.62-2.53.68-.72,1.49-1.29,2.42-1.7.93-.42,1.92-.62,2.97-.62.37,0,.7,0,.97.02s.55.06.81.14v2.84c-.27-.09-.54-.15-.81-.17s-.6-.03-.97-.03c-.75,0-1.42.13-2.01.39Z"/>
      <path class="cls-2" d="M326.58,44.43v-12.68h-3.33v-2.7h9.34v2.7h-3.33v12.68h-2.68Z"/>
      <path class="cls-2" d="M338.49,36.58v7.85h-2.68v-15.38h2.68v4.83h2.68v-4.83h2.68v15.38h-2.68v-7.85h-2.68ZM338.49,33.88h2.68-2.68Z"/>
    </g>
    <g>
      <path class="cls-2" d="M95.14,77.3c.15.35.34.65.58.91s.52.46.85.6c.33.15.71.22,1.13.22.54,0,.98-.09,1.33-.26.35-.17.63-.4.84-.68.21-.28.36-.59.44-.92.08-.33.12-.66.12-.97,0-.46-.14-.86-.42-1.23-.28-.36-.63-.7-1.06-1.02-.43-.32-.88-.64-1.38-.95-.49-.32-.95-.66-1.38-1.03-.43-.37-.78-.78-1.06-1.23-.28-.45-.42-.97-.42-1.55,0-.43.09-.84.27-1.23.18-.39.43-.73.74-1.03s.66-.53,1.06-.7c.4-.18.81-.26,1.24-.26s.85.09,1.26.26c.41.17.77.41,1.1.7.32.29.58.63.77,1.03.19.39.29.8.29,1.23h-2.52c0-.21-.07-.39-.22-.54-.15-.15-.33-.23-.55-.23-.2,0-.37.08-.53.23-.15.15-.23.33-.23.54,0,.28.15.55.44.8s.66.52,1.09.8c.44.28.91.59,1.42.92.51.33.98.72,1.42,1.16.44.44.8.94,1.09,1.5s.44,1.21.44,1.94c0,.6-.11,1.21-.33,1.86-.22.64-.55,1.23-.99,1.75-.44.53-.99.96-1.66,1.3-.67.34-1.44.52-2.31.52s-1.68-.14-2.37-.42c-.69-.28-1.28-.67-1.77-1.16-.49-.49-.88-1.07-1.17-1.75-.29-.68-.47-1.42-.55-2.22h2.68c.05.4.15.77.3,1.12Z"/>
      <path class="cls-2" d="M102.92,87.18v15.4h-2.68v-9.86l-2.5,2.86-2.31-2.86v9.86h-2.68v-15.4h2.33l2.66,3.92,2.68-3.92h2.5Z"/>
      <path class="cls-2" d="M96.84,120.91h6.08v2.68h-8.76v-15.38h2.68v12.7Z"/>
      <path class="cls-2" d="M91.82,134.13l2.79-4.9h3.21l-4.4,7.71,4.38,7.67h-3.21l-2.77-4.85-2.77,4.85h-3.21l4.36-7.67-4.38-7.71h3.21l2.79,4.9Z"/>
      <path class="cls-2" d="M103.36,141.93h6.08v2.68h-8.76v-15.38h2.68v12.7Z"/>
      <path class="cls-2" d="M84.29,155.15l2.79-4.9h3.21l-4.4,7.71,4.38,7.67h-3.21l-2.77-4.85-2.77,4.85h-3.21l4.36-7.67-4.38-7.71h3.21l2.79,4.9Z"/>
      <path class="cls-2" d="M97.34,155.15l2.79-4.9h3.21l-4.4,7.71,4.38,7.67h-3.21l-2.77-4.85-2.77,4.85h-3.21l4.36-7.67-4.38-7.71h3.21l2.79,4.9Z"/>
      <path class="cls-2" d="M108.88,162.94h6.08v2.68h-8.76v-15.38h2.68v12.7Z"/>
      <path class="cls-2" d="M82.24,181.28v.02c0,.37.07.72.21,1.05.14.33.33.61.58.86.25.25.53.44.85.59.32.15.67.22,1.04.22s.71-.07,1.03-.22c.33-.15.61-.34.86-.59s.44-.53.58-.86.21-.68.21-1.05-.07-.73-.21-1.06-.33-.62-.58-.87-.53-.44-.86-.59c-.33-.15-.67-.22-1.03-.22-.51,0-.99.14-1.44.42l-.81-2.33,2.29-2.96h-3.61v-2.43h8.25l-3.63,5.04c.63,0,1.21.15,1.75.45s1,.69,1.38,1.18c.38.49.69,1.06.91,1.7.22.64.33,1.31.33,2.01s-.14,1.42-.41,2.07c-.27.64-.65,1.2-1.13,1.67-.48.47-1.04.85-1.68,1.12s-1.33.41-2.07.41c-.69,0-1.34-.12-1.94-.36s-1.14-.57-1.61-.99c-.47-.42-.85-.92-1.15-1.5s-.48-1.21-.55-1.88l2.42-.91Z"/>
      <path class="cls-2" d="M98.35,176.16l2.79-4.9h3.21l-4.4,7.71,4.38,7.67h-3.21l-2.77-4.85-2.77,4.85h-3.21l4.36-7.67-4.38-7.71h3.21l2.79,4.9Z"/>
      <path class="cls-2" d="M109.89,183.96h6.08v2.68h-8.76v-15.38h2.68v12.7Z"/>
    </g>
    <g>
      <path class="cls-2" d="M186.93,76.2v.02c0,.37.07.72.21,1.05.14.33.33.61.58.86.25.25.53.44.85.59.32.15.67.22,1.04.22s.71-.07,1.03-.22c.33-.15.61-.34.86-.59s.44-.53.58-.86.21-.68.21-1.05-.07-.73-.21-1.06-.33-.62-.58-.87-.53-.44-.86-.59c-.33-.15-.67-.22-1.03-.22-.51,0-.99.14-1.44.42l-.81-2.33,2.29-2.96h-3.61v-2.43h8.25l-3.63,5.04c.63,0,1.21.15,1.75.45s1,.69,1.38,1.18c.38.49.69,1.06.91,1.7.22.64.33,1.31.33,2.01s-.14,1.42-.41,2.07c-.27.64-.65,1.2-1.13,1.67-.48.47-1.04.85-1.68,1.12s-1.33.41-2.07.41c-.69,0-1.34-.12-1.94-.36s-1.14-.57-1.61-.99c-.47-.42-.85-.92-1.15-1.5s-.48-1.21-.55-1.88l2.42-.91Z"/>
      <path class="cls-2" d="M199.99,76.2v.02c0,.37.07.72.21,1.05.14.33.33.61.58.86.25.25.53.44.85.59.32.15.67.22,1.04.22s.71-.07,1.03-.22c.33-.15.61-.34.86-.59s.44-.53.58-.86.21-.68.21-1.05-.07-.73-.21-1.06-.33-.62-.58-.87-.53-.44-.86-.59c-.33-.15-.67-.22-1.03-.22-.51,0-.99.14-1.44.42l-.81-2.33,2.29-2.96h-3.61v-2.43h8.25l-3.63,5.04c.63,0,1.21.15,1.75.45s1,.69,1.38,1.18c.38.49.69,1.06.91,1.7.22.64.33,1.31.33,2.01s-.14,1.42-.41,2.07c-.27.64-.65,1.2-1.13,1.67-.48.47-1.04.85-1.68,1.12s-1.33.41-2.07.41c-.69,0-1.34-.12-1.94-.36s-1.14-.57-1.61-.99c-.47-.42-.85-.92-1.15-1.5s-.48-1.21-.55-1.88l2.42-.91Z"/>
      <path class="cls-2" d="M213,69.56c-.4,1.47-1.16,3.35-1.63,4.15l-.98.12c.37-1.03.84-2.86,1.03-4.12l1.58-.16ZM215.6,69.56c-.4,1.47-1.16,3.35-1.63,4.15l-.98.12c.38-1.03.84-2.86,1.03-4.12l1.58-.16Z"/>
      <path class="cls-2" d="M187.02,97.21v.02c0,.37.07.72.21,1.05.14.33.33.61.58.86.25.25.53.44.85.59.32.15.67.22,1.04.22s.71-.07,1.03-.22c.33-.15.61-.34.86-.59s.44-.53.58-.86.21-.68.21-1.05-.07-.73-.21-1.06-.33-.62-.58-.87-.53-.44-.86-.59c-.33-.15-.67-.22-1.03-.22-.51,0-.99.14-1.44.42l-.81-2.33,2.29-2.96h-3.61v-2.43h8.25l-3.63,5.04c.63,0,1.21.15,1.75.45s1,.69,1.38,1.18c.38.49.69,1.06.91,1.7.22.64.33,1.31.33,2.01s-.14,1.42-.41,2.07c-.27.64-.65,1.2-1.13,1.67-.48.47-1.04.85-1.68,1.12s-1.33.41-2.07.41c-.69,0-1.34-.12-1.94-.36s-1.14-.57-1.61-.99c-.47-.42-.85-.92-1.15-1.5s-.48-1.21-.55-1.88l2.42-.91Z"/>
      <path class="cls-2" d="M201.59,92.29c.27-.13.55-.22.81-.27.28-.05.52-.08.72-.08.75,0,1.43.14,2.04.42s1.14.66,1.59,1.15c.44.49.79,1.05,1.03,1.71.25.65.37,1.35.37,2.1s-.12,1.43-.37,2.08c-.25.65-.59,1.21-1.03,1.7-.44.49-.97.86-1.59,1.14s-1.29.41-2.04.41-1.41-.14-2.02-.41-1.14-.65-1.58-1.14c-.44-.48-.78-1.05-1.02-1.7-.24-.65-.36-1.34-.36-2.08v-1.19c0-1.44.1-2.65.31-3.65s.49-1.83.85-2.49.79-1.18,1.28-1.56c.49-.38,1.02-.66,1.6-.84.58-.18,1.18-.29,1.81-.34.63-.05,1.27-.07,1.93-.07v2.65c-.61,0-1.2.06-1.79.18-.58.12-1.1.34-1.56.67-.44.31-.81.76-1.1,1.34-.07.14-.13.29-.17.46.09-.07.19-.13.29-.17ZM200.98,98.38c.11.32.25.6.45.84.19.24.43.43.72.57.29.14.62.21.99.21s.69-.07.98-.21c.29-.14.54-.33.74-.57.2-.24.35-.52.46-.84.1-.32.16-.67.16-1.04s-.05-.71-.16-1.03c-.11-.33-.26-.61-.46-.86-.2-.25-.44-.44-.74-.58-.29-.14-.62-.21-.98-.21s-.7.07-.99.21c-.29.14-.53.33-.72.58-.19.25-.34.53-.45.86-.1.33-.16.67-.16,1.03s.05.72.16,1.04Z"/>
      <path class="cls-2" d="M212.91,90.57c-.4,1.47-1.16,3.35-1.63,4.15l-.98.12c.37-1.03.84-2.86,1.03-4.12l1.58-.16ZM215.5,90.57c-.4,1.47-1.16,3.35-1.63,4.15l-.98.12c.38-1.03.84-2.86,1.03-4.12l1.58-.16Z"/>
      <path class="cls-2" d="M193.32,118.23h1.59v2.68h-1.59v2.68h-2.68v-2.68h-5.24v-2.68c1.07-1.83,2.03-3.48,2.87-4.94.36-.62.71-1.23,1.06-1.83s.65-1.14.92-1.61.49-.86.66-1.17c.17-.3.25-.47.25-.49h2.15v10.04ZM188.87,118.04h1.77v-3.07l-1.77,3.07Z"/>
      <path class="cls-2" d="M206.8,120.48c-.23.65-.55,1.21-.97,1.7-.42.48-.93.86-1.52,1.14s-1.27.41-2.01.41-1.4-.14-2-.41c-.59-.27-1.1-.65-1.51-1.14-.42-.48-.73-1.05-.96-1.7s-.33-1.34-.33-2.08v-4.99c0-.75.11-1.45.33-2.1.22-.65.54-1.22.96-1.71.41-.48.92-.87,1.51-1.15.6-.28,1.26-.42,2-.42s1.42.14,2.01.42,1.1.66,1.52,1.15c.42.48.74,1.05.97,1.71.23.65.34,1.35.34,2.1v4.99c0,.74-.11,1.43-.34,2.08ZM200.29,119.46c.08.32.21.6.39.84s.4.43.67.57c.27.14.59.21.96.21s.68-.07.96-.21c.27-.14.5-.33.67-.57.18-.24.31-.52.39-.84s.13-.67.13-1.04v-4.99c0-.36-.04-.71-.13-1.03s-.22-.61-.39-.86c-.17-.25-.4-.44-.67-.58-.27-.14-.59-.21-.96-.21s-.69.07-.96.21c-.27.14-.49.33-.67.58s-.3.53-.39.86c-.08.33-.12.67-.12,1.03v4.99c0,.37.04.72.12,1.04Z"/>
      <path class="cls-2" d="M212.08,111.59c-.4,1.47-1.16,3.35-1.63,4.15l-.98.12c.37-1.03.84-2.86,1.03-4.12l1.58-.16ZM214.67,111.59c-.4,1.47-1.16,3.35-1.63,4.15l-.98.12c.38-1.03.84-2.86,1.03-4.12l1.58-.16Z"/>
      <path class="cls-2" d="M193.86,139.25h1.59v2.68h-1.59v2.68h-2.68v-2.68h-5.24v-2.68c1.07-1.83,2.03-3.48,2.87-4.94.36-.62.71-1.23,1.06-1.83s.65-1.14.92-1.61.49-.86.66-1.17c.17-.3.25-.47.25-.49h2.15v10.04ZM189.42,139.05h1.77v-3.07l-1.77,3.07Z"/>
      <path class="cls-2" d="M205.46,139.25h1.59v2.68h-1.59v2.68h-2.68v-2.68h-5.24v-2.68c1.07-1.83,2.03-3.48,2.87-4.94.36-.62.71-1.23,1.06-1.83s.65-1.14.92-1.61.49-.86.66-1.17c.17-.3.25-.47.25-.49h2.15v10.04ZM201.01,139.05h1.77v-3.07l-1.77,3.07Z"/>
      <path class="cls-2" d="M211.53,132.61c-.4,1.47-1.16,3.35-1.63,4.15l-.98.12c.37-1.03.84-2.86,1.03-4.12l1.58-.16ZM214.13,132.61c-.4,1.47-1.16,3.35-1.63,4.15l-.98.12c.38-1.03.84-2.86,1.03-4.12l1.58-.16Z"/>
      <path class="cls-2" d="M192.88,160.26h1.59v2.68h-1.59v2.68h-2.68v-2.68h-5.24v-2.68c1.07-1.83,2.03-3.48,2.87-4.94.36-.62.71-1.23,1.06-1.83s.65-1.14.92-1.61.49-.86.66-1.17c.17-.3.25-.47.25-.49h2.15v10.04ZM188.43,160.07h1.77v-3.07l-1.77,3.07Z"/>
      <path class="cls-2" d="M197.51,158.2c.34-.71.81-1.3,1.39-1.79-.26-.35-.46-.73-.6-1.15-.14-.42-.21-.87-.21-1.36,0-.57.11-1.12.33-1.63.22-.51.52-.96.9-1.33.38-.37.83-.67,1.34-.89.51-.22,1.06-.33,1.65-.33s1.13.11,1.64.33c.51.22.95.52,1.33.89.38.37.68.82.9,1.33.22.51.33,1.06.33,1.63,0,.49-.07.94-.21,1.36-.14.41-.34.8-.6,1.15.6.49,1.06,1.09,1.4,1.79.34.71.51,1.47.51,2.3,0,.75-.14,1.45-.42,2.1-.28.65-.66,1.23-1.15,1.72-.48.49-1.05.88-1.69,1.16-.64.28-1.33.42-2.05.42s-1.43-.14-2.08-.42c-.65-.28-1.21-.67-1.7-1.16-.48-.49-.86-1.06-1.14-1.72-.27-.65-.41-1.35-.41-2.1,0-.83.17-1.6.52-2.3ZM200.09,161.62c.12.3.29.55.52.77.22.22.48.39.77.52.29.13.61.19.95.19s.64-.06.94-.19c.3-.13.55-.3.77-.52s.39-.47.52-.77c.13-.3.19-.62.19-.95s-.06-.64-.19-.94c-.13-.3-.3-.55-.52-.77-.22-.22-.47-.39-.77-.52-.3-.13-.61-.19-.94-.19s-.65.06-.95.19c-.29.13-.55.3-.77.52-.22.22-.39.47-.52.77-.12.3-.18.61-.18.94s.06.66.18.95ZM200.79,154.71c.09.22.21.42.36.59.15.17.33.3.53.39.2.09.41.14.65.14.22,0,.43-.05.62-.14.19-.09.37-.22.52-.39.15-.17.27-.37.36-.59.09-.22.13-.46.13-.72s-.04-.5-.13-.72c-.09-.22-.21-.41-.36-.58-.15-.16-.32-.29-.52-.39-.19-.1-.4-.15-.62-.15-.23,0-.45.05-.65.15-.2.1-.37.23-.53.39-.15.16-.27.36-.36.58s-.13.46-.13.72.04.5.13.72Z"/>
      <path class="cls-2" d="M212.51,153.62c-.4,1.47-1.16,3.35-1.63,4.15l-.98.12c.37-1.03.84-2.86,1.03-4.12l1.58-.16ZM215.11,153.62c-.4,1.47-1.16,3.35-1.63,4.15l-.98.12c.38-1.03.84-2.86,1.03-4.12l1.58-.16Z"/>
      <path class="cls-2" d="M186.7,182.49c.16.47.46.85.88,1.15.42.3.89.45,1.42.45.81,0,1.47-.23,1.98-.69.51-.46.77-1.13.77-2.01,0-.43-.07-.82-.22-1.17-.15-.34-.34-.64-.6-.88s-.54-.42-.88-.54-.69-.18-1.06-.18c-.46,0-.86.12-1.22.35-.36.23-.65.53-.87.89l-1.86-1.66,3.24-6.67h2.77l-.19.32c.09.05.22.09.37.14.13.04.3.07.53.1s.5.04.84.04c.3,0,.6-.05.88-.14.28-.09.53-.2.75-.32.26-.13.5-.29.72-.47l-1.37,2.77c-.14.11-.3.19-.47.26-.16.07-.35.13-.57.18-.22.05-.46.08-.73.08-.23,0-.46-.03-.69-.08-.23-.05-.43-.11-.62-.18-.21-.07-.42-.16-.63-.26l-1.03,2.14h.3c.7,0,1.37.14,2,.43s1.19.67,1.66,1.17c.48.49.86,1.05,1.14,1.69s.42,1.3.42,2.01c0,.77-.14,1.48-.42,2.14s-.66,1.22-1.14,1.7c-.48.48-1.03.85-1.66,1.12s-1.3.4-2,.4c-.86,0-1.66-.21-2.4-.63-.74-.42-1.32-.96-1.75-1.63v-.02l1.72-1.98Z"/>
      <path class="cls-2" d="M197.82,176.06c0-.68.13-1.32.39-1.93.26-.61.62-1.13,1.07-1.58.45-.44.97-.8,1.58-1.06s1.25-.39,1.94-.39,1.32.13,1.93.39c.61.26,1.14.62,1.59,1.06.45.44.81.97,1.07,1.58.26.61.39,1.25.39,1.93,0,.55-.08,1.07-.25,1.56l-4.4,5.76h4.85v3.21h-10.46v-.84l7.15-9.16c.01-.08.02-.16.03-.24,0-.08,0-.14,0-.2,0-.28-.05-.54-.16-.79s-.25-.46-.43-.64-.4-.32-.65-.43-.52-.16-.8-.16-.54.05-.78.16c-.24.11-.45.25-.62.43-.18.18-.32.39-.42.64-.1.25-.16.51-.16.79h-2.87v-.09Z"/>
      <path class="cls-2" d="M212.78,174.64c-.4,1.47-1.16,3.35-1.63,4.15l-.98.12c.37-1.03.84-2.86,1.03-4.12l1.58-.16ZM215.37,174.64c-.4,1.47-1.16,3.35-1.63,4.15l-.98.12c.38-1.03.84-2.86,1.03-4.12l1.58-.16Z"/>
    </g>
    <g>
      <path class="cls-2" d="M295.1,69.5c0-.68.13-1.32.39-1.93.26-.61.62-1.13,1.07-1.58.45-.44.97-.8,1.58-1.06s1.25-.39,1.94-.39,1.32.13,1.93.39c.61.26,1.14.62,1.59,1.06.45.44.81.97,1.07,1.58.26.61.39,1.25.39,1.93,0,.55-.08,1.07-.25,1.56l-4.4,5.76h4.85v3.21h-10.46v-.84l7.15-9.16c.01-.08.02-.16.03-.24,0-.08,0-.14,0-.2,0-.28-.05-.54-.16-.79s-.25-.46-.43-.64-.4-.32-.65-.43-.52-.16-.8-.16-.54.05-.78.16c-.24.11-.45.25-.62.43-.18.18-.32.39-.42.64-.1.25-.16.51-.16.79h-2.87v-.09Z"/>
      <path class="cls-2" d="M309.65,75.93c.16.47.46.85.88,1.15.42.3.89.45,1.42.45.81,0,1.47-.23,1.98-.69.51-.46.77-1.13.77-2.01,0-.43-.07-.82-.22-1.17-.15-.34-.34-.64-.6-.88s-.54-.42-.88-.54-.69-.18-1.06-.18c-.46,0-.86.12-1.22.35-.36.23-.65.53-.87.89l-1.86-1.66,3.24-6.67h2.77l-.19.32c.09.05.22.09.37.14.13.04.3.07.53.1s.5.04.84.04c.3,0,.6-.05.88-.14.28-.09.53-.2.75-.32.26-.13.5-.29.72-.47l-1.37,2.77c-.14.11-.3.19-.47.26-.16.07-.35.13-.57.18-.22.05-.46.08-.73.08-.23,0-.46-.03-.69-.08-.23-.05-.43-.11-.62-.18-.21-.07-.42-.16-.63-.26l-1.03,2.14h.3c.7,0,1.37.14,2,.43s1.19.67,1.66,1.17c.48.49.86,1.05,1.14,1.69s.42,1.3.42,2.01c0,.77-.14,1.48-.42,2.14s-.66,1.22-1.14,1.7c-.48.48-1.03.85-1.66,1.12s-1.3.4-2,.4c-.86,0-1.66-.21-2.4-.63-.74-.42-1.32-.96-1.75-1.63v-.02l1.72-1.98Z"/>
      <path class="cls-2" d="M322.6,68.08c-.4,1.47-1.16,3.35-1.63,4.15l-.98.12c.37-1.03.84-2.86,1.03-4.12l1.58-.16ZM325.19,68.08c-.4,1.47-1.16,3.35-1.63,4.15l-.98.12c.38-1.03.84-2.86,1.03-4.12l1.58-.16Z"/>
      <path class="cls-2" d="M294.93,90.52c0-.68.13-1.32.39-1.93.26-.61.62-1.13,1.07-1.58.45-.44.97-.8,1.58-1.06s1.25-.39,1.94-.39,1.32.13,1.93.39c.61.26,1.14.62,1.59,1.06.45.44.81.97,1.07,1.58.26.61.39,1.25.39,1.93,0,.55-.08,1.07-.25,1.56l-4.4,5.76h4.85v3.21h-10.46v-.84l7.15-9.16c.01-.08.02-.16.03-.24,0-.08,0-.14,0-.2,0-.28-.05-.54-.16-.79s-.25-.46-.43-.64-.4-.32-.65-.43-.52-.16-.8-.16-.54.05-.78.16c-.24.11-.45.25-.62.43-.18.18-.32.39-.42.64-.1.25-.16.51-.16.79h-2.87v-.09Z"/>
      <path class="cls-2" d="M311.44,90.81c.27-.13.55-.22.81-.27.28-.05.52-.08.72-.08.75,0,1.43.14,2.04.42s1.14.66,1.59,1.15c.44.49.79,1.05,1.03,1.71.25.65.37,1.35.37,2.1s-.12,1.43-.37,2.08c-.25.65-.59,1.21-1.03,1.7-.44.49-.97.86-1.59,1.14s-1.29.41-2.04.41-1.41-.14-2.02-.41-1.14-.65-1.58-1.14c-.44-.48-.78-1.05-1.02-1.7-.24-.65-.36-1.34-.36-2.08v-1.19c0-1.44.1-2.65.31-3.65s.49-1.83.85-2.49.79-1.18,1.28-1.56c.49-.38,1.02-.66,1.6-.84.58-.18,1.18-.29,1.81-.34.63-.05,1.27-.07,1.93-.07v2.65c-.61,0-1.2.06-1.79.18-.58.12-1.1.34-1.56.67-.44.31-.81.76-1.1,1.34-.07.14-.13.29-.17.46.09-.07.19-.13.29-.17ZM310.84,96.9c.11.32.25.6.45.84.19.24.43.43.72.57.29.14.62.21.99.21s.69-.07.98-.21c.29-.14.54-.33.74-.57.2-.24.35-.52.46-.84.1-.32.16-.67.16-1.04s-.05-.71-.16-1.03c-.11-.33-.26-.61-.46-.86-.2-.25-.44-.44-.74-.58-.29-.14-.62-.21-.98-.21s-.7.07-.99.21c-.29.14-.53.33-.72.58-.19.25-.34.53-.45.86-.1.33-.16.67-.16,1.03s.05.72.16,1.04Z"/>
      <path class="cls-2" d="M322.76,89.1c-.4,1.47-1.16,3.35-1.63,4.15l-.98.12c.37-1.03.84-2.86,1.03-4.12l1.58-.16ZM325.36,89.1c-.4,1.47-1.16,3.35-1.63,4.15l-.98.12c.38-1.03.84-2.86,1.03-4.12l1.58-.16Z"/>
      <path class="cls-2" d="M294.77,111.53c0-.68.13-1.32.39-1.93.26-.61.62-1.13,1.07-1.58.45-.44.97-.8,1.58-1.06s1.25-.39,1.94-.39,1.32.13,1.93.39c.61.26,1.14.62,1.59,1.06.45.44.81.97,1.07,1.58.26.61.39,1.25.39,1.93,0,.55-.08,1.07-.25,1.56l-4.4,5.76h4.85v3.21h-10.46v-.84l7.15-9.16c.01-.08.02-.16.03-.24,0-.08,0-.14,0-.2,0-.28-.05-.54-.16-.79s-.25-.46-.43-.64-.4-.32-.65-.43-.52-.16-.8-.16-.54.05-.78.16c-.24.11-.45.25-.62.43-.18.18-.32.39-.42.64-.1.25-.16.51-.16.79h-2.87v-.09Z"/>
      <path class="cls-2" d="M308.03,109.76c.26-.65.62-1.22,1.08-1.71.46-.48,1.01-.87,1.64-1.15s1.31-.42,2.05-.42,1.44.14,2.07.42,1.18.66,1.65,1.15c.47.48.83,1.05,1.09,1.71.26.65.39,1.35.39,2.1s-.15,1.5-.44,2.19v.02c-.06.13-.12.25-.19.38-.07.12-.14.25-.21.38l-3.84,7.27h-2.68l2.77-4.92.02-.02c-.09.02-.2.04-.31.04h-.32c-.74,0-1.42-.14-2.05-.41s-1.18-.65-1.64-1.14c-.46-.48-.82-1.05-1.08-1.7s-.39-1.34-.39-2.08.13-1.45.39-2.1ZM310.5,112.93c.12.32.29.6.51.84s.48.43.78.57c.3.14.64.21,1.02.21s.7-.07,1.01-.21c.31-.14.58-.33.8-.57s.39-.52.52-.84c.12-.32.18-.67.18-1.04s-.06-.71-.18-1.03c-.12-.33-.29-.61-.52-.86s-.49-.44-.8-.58c-.31-.14-.65-.21-1.01-.21s-.71.07-1.02.21c-.3.14-.56.33-.78.58s-.39.53-.51.86c-.12.33-.18.67-.18,1.03s.06.72.18,1.04Z"/>
      <path class="cls-2" d="M322.93,110.11c-.4,1.47-1.16,3.35-1.63,4.15l-.98.12c.37-1.03.84-2.86,1.03-4.12l1.58-.16ZM325.52,110.11c-.4,1.47-1.16,3.35-1.63,4.15l-.98.12c.38-1.03.84-2.86,1.03-4.12l1.58-.16Z"/>
      <path class="cls-2" d="M286.47,132.55c0-.68.13-1.32.39-1.93.26-.61.62-1.13,1.07-1.58.45-.44.97-.8,1.58-1.06s1.25-.39,1.94-.39,1.32.13,1.93.39c.61.26,1.14.62,1.59,1.06.45.44.81.97,1.07,1.58.26.61.39,1.25.39,1.93,0,.55-.08,1.07-.25,1.56l-4.4,5.76h4.85v3.21h-10.46v-.84l7.15-9.16c.01-.08.02-.16.03-.24,0-.08,0-.14,0-.2,0-.28-.05-.54-.16-.79s-.25-.46-.43-.64-.4-.32-.65-.43-.52-.16-.8-.16-.54.05-.78.16c-.24.11-.45.25-.62.43-.18.18-.32.39-.42.64-.1.25-.16.51-.16.79h-2.87v-.09Z"/>
      <path class="cls-2" d="M299.72,130.78c.26-.65.62-1.22,1.08-1.71.46-.48,1.01-.87,1.64-1.15s1.31-.42,2.05-.42,1.44.14,2.07.42c.63.28,1.18.66,1.65,1.15.47.48.83,1.05,1.09,1.71.26.65.39,1.35.39,2.1s-.15,1.5-.44,2.19v.02c-.06.13-.12.25-.19.38-.07.12-.14.25-.21.38l-3.84,7.27h-2.68l2.77-4.92.02-.02c-.09.02-.2.04-.31.04h-.32c-.74,0-1.42-.14-2.05-.41s-1.18-.65-1.64-1.14c-.46-.48-.82-1.05-1.08-1.7s-.39-1.34-.39-2.08.13-1.45.39-2.1ZM302.2,133.94c.12.32.29.6.51.84s.48.43.78.57c.3.14.64.21,1.02.21s.7-.07,1.01-.21c.31-.14.58-.33.8-.57s.39-.52.52-.84c.12-.32.18-.67.18-1.04s-.06-.71-.18-1.03c-.12-.33-.29-.61-.52-.86s-.49-.44-.8-.58c-.31-.14-.65-.21-1.01-.21s-.71.07-1.02.21c-.3.14-.56.33-.78.58s-.39.53-.51.86c-.12.33-.18.67-.18,1.03s.06.72.18,1.04Z"/>
      <path class="cls-2" d="M312.33,142.22c0-.65.44-1.1,1.05-1.1s1.03.46,1.03,1.1-.4,1.1-1.05,1.1c-.61,0-1.03-.47-1.03-1.1Z"/>
      <path class="cls-2" d="M318.29,138.98c.16.47.46.85.88,1.15.42.3.89.45,1.42.45.81,0,1.47-.23,1.98-.69.51-.46.77-1.13.77-2.01,0-.43-.07-.82-.22-1.17-.15-.34-.34-.64-.6-.88s-.54-.42-.88-.54-.69-.18-1.06-.18c-.46,0-.86.12-1.22.35-.36.23-.65.53-.87.89l-1.86-1.66,3.24-6.67h2.77l-.19.32c.09.05.22.09.37.14.13.04.3.07.53.1s.5.04.84.04c.3,0,.6-.05.88-.14.28-.09.53-.2.75-.32.26-.13.5-.29.72-.47l-1.37,2.77c-.14.11-.3.19-.47.26-.16.07-.35.13-.57.18-.22.05-.46.08-.73.08-.23,0-.46-.03-.69-.08-.23-.05-.43-.11-.62-.18-.21-.07-.42-.16-.63-.26l-1.03,2.14h.3c.7,0,1.37.14,2,.43s1.19.67,1.66,1.17c.48.49.86,1.05,1.14,1.69s.42,1.3.42,2.01c0,.77-.14,1.48-.42,2.14s-.66,1.22-1.14,1.7c-.48.48-1.03.85-1.66,1.12s-1.3.4-2,.4c-.86,0-1.66-.21-2.4-.63-.74-.42-1.32-.96-1.75-1.63v-.02l1.72-1.98Z"/>
      <path class="cls-2" d="M331.23,131.13c-.4,1.47-1.16,3.35-1.63,4.15l-.98.12c.37-1.03.84-2.86,1.03-4.12l1.58-.16ZM333.82,131.13c-.4,1.47-1.16,3.35-1.63,4.15l-.98.12c.38-1.03.84-2.86,1.03-4.12l1.58-.16Z"/>
      <path class="cls-2" d="M296.94,158.79v.02c0,.37.07.72.21,1.05.14.33.33.61.58.86.25.25.53.44.85.59.32.15.67.22,1.04.22s.71-.07,1.03-.22c.33-.15.61-.34.86-.59s.44-.53.58-.86.21-.68.21-1.05-.07-.73-.21-1.06-.33-.62-.58-.87-.53-.44-.86-.59c-.33-.15-.67-.22-1.03-.22-.51,0-.99.14-1.44.42l-.81-2.33,2.29-2.96h-3.61v-2.43h8.25l-3.63,5.04c.63,0,1.21.15,1.75.45s1,.69,1.38,1.18c.38.49.69,1.06.91,1.7.22.64.33,1.31.33,2.01s-.14,1.42-.41,2.07c-.27.64-.65,1.2-1.13,1.67-.48.47-1.04.85-1.68,1.12s-1.33.41-2.07.41c-.69,0-1.34-.12-1.94-.36s-1.14-.57-1.61-.99c-.47-.42-.85-.92-1.15-1.5s-.48-1.21-.55-1.88l2.42-.91Z"/>
      <path class="cls-2" d="M317.35,161.04c-.23.65-.55,1.21-.97,1.7-.42.48-.93.86-1.52,1.14s-1.27.41-2.01.41-1.4-.14-2-.41-1.1-.65-1.51-1.14c-.42-.48-.73-1.05-.96-1.7s-.33-1.34-.33-2.08v-4.99c0-.75.11-1.45.33-2.1.22-.65.54-1.22.96-1.71.41-.48.92-.87,1.51-1.15s1.26-.42,2-.42,1.42.14,2.01.42,1.1.66,1.52,1.15c.42.48.74,1.05.97,1.71.23.65.34,1.35.34,2.1v4.99c0,.74-.11,1.43-.34,2.08ZM310.84,160.02c.08.32.21.6.39.84s.4.43.67.57c.27.14.59.21.96.21s.68-.07.96-.21c.27-.14.5-.33.67-.57.18-.24.31-.52.39-.84s.13-.67.13-1.04v-4.99c0-.36-.04-.71-.13-1.03s-.22-.61-.39-.86c-.17-.25-.4-.44-.67-.58-.27-.14-.59-.21-.96-.21s-.69.07-.96.21c-.27.14-.49.33-.67.58s-.3.53-.39.86c-.08.33-.12.67-.12,1.03v4.99c0,.37.04.72.12,1.04Z"/>
      <path class="cls-2" d="M322.63,152.15c-.4,1.47-1.16,3.35-1.63,4.15l-.98.12c.37-1.03.84-2.86,1.03-4.12l1.58-.16ZM325.22,152.15c-.4,1.47-1.16,3.35-1.63,4.15l-.98.12c.38-1.03.84-2.86,1.03-4.12l1.58-.16Z"/>
      <path class="cls-2" d="M298.79,179.8v.02c0,.37.07.72.21,1.05.14.33.33.61.58.86.25.25.53.44.85.59.32.15.67.22,1.04.22s.71-.07,1.03-.22c.33-.15.61-.34.86-.59s.44-.53.58-.86.21-.68.21-1.05-.07-.73-.21-1.06-.33-.62-.58-.87-.53-.44-.86-.59c-.33-.15-.67-.22-1.03-.22-.51,0-.99.14-1.44.42l-.81-2.33,2.29-2.96h-3.61v-2.43h8.25l-3.63,5.04c.63,0,1.21.15,1.75.45s1,.69,1.38,1.18c.38.49.69,1.06.91,1.7.22.64.33,1.31.33,2.01s-.14,1.42-.41,2.07c-.27.64-.65,1.2-1.13,1.67-.48.47-1.04.85-1.68,1.12s-1.33.41-2.07.41c-.69,0-1.34-.12-1.94-.36s-1.14-.57-1.61-.99c-.47-.42-.85-.92-1.15-1.5s-.48-1.21-.55-1.88l2.42-.91Z"/>
      <path class="cls-2" d="M314.99,185.16h-2.68v-9.34h-3.08v-2.4h.33c.09,0,.18,0,.25,0,.08,0,.12,0,.15,0,.5,0,.94-.12,1.32-.37.38-.25.69-.65.92-1.21.08-.2.15-.4.2-.61.05-.21.1-.4.13-.58.05-.21.08-.42.09-.61l.03-.26h2.33v15.4Z"/>
      <path class="cls-2" d="M320.78,173.16c-.4,1.47-1.16,3.35-1.63,4.15l-.98.12c.37-1.03.84-2.86,1.03-4.12l1.58-.16ZM323.38,173.16c-.4,1.47-1.16,3.35-1.63,4.15l-.98.12c.38-1.03.84-2.86,1.03-4.12l1.58-.16Z"/>
    </g>
  </g>
</svg>