<?xml version="1.0" encoding="UTF-8"?>
<svg id="Layer_1" xmlns="http://www.w3.org/2000/svg" viewBox="0 0 643.39 645.43">
  <defs>
    <style>
      .cls-1 {
        fill: #0f1211;
      }

      .cls-2 {
        stroke: #006846;
        stroke-miterlimit: 10;
      }

      .cls-2, .cls-3 {
        fill: #006846;
      }
    </style>
  </defs>
  <rect class="cls-3" y="-2.4" width="643.39" height="647.84"/>
  <rect class="cls-1" x="1.8" y="319.51" width="215.5" height="204.89"/>
  <rect class="cls-1" x="1.8" y="520.28" width="215.5" height="125.16"/>
  <rect class="cls-1" x="220.9" y="529.8" width="420.79" height="115.41"/>
  <path class="cls-3" d="M277.11,583.45c0-29.05-23.55-52.6-52.6-52.6v105.2c29.05,0,52.6-23.55,52.6-52.6Z"/>
  <g>
    <path class="cls-3" d="M57.86,580.37c28.73,0,52.03-23.29,52.03-52.03H5.83c0,28.73,23.29,52.03,52.03,52.03Z"/>
    <path class="cls-3" d="M163.25,580.37c28.73,0,52.03-23.29,52.03-52.03h-104.06c0,28.73,23.29,52.03,52.03,52.03Z"/>
  </g>
  <g>
    <path class="cls-3" d="M57.86,636.7c28.73,0,52.03-23.29,52.03-52.03H5.83c0,28.73,23.29,52.03,52.03,52.03Z"/>
    <path class="cls-3" d="M163.25,636.7c28.73,0,52.03-23.29,52.03-52.03h-104.06c0,28.73,23.29,52.03,52.03,52.03Z"/>
  </g>
  <path class="cls-3" d="M375.85,583.45c0-29.05,23.55-52.6,52.6-52.6v105.2c-29.05,0-52.6-23.55-52.6-52.6Z"/>
  <path class="cls-3" d="M486.87,583.45c0-29.05-23.55-52.6-52.6-52.6v105.2c29.05,0,52.6-23.55,52.6-52.6Z"/>
  <path class="cls-3" d="M603.61,583.45c0-29.05-23.55-52.6-52.6-52.6v105.2c29.05,0,52.6-23.55,52.6-52.6Z"/>
  <path class="cls-2" d="M325.73,418.71c56.48,0,102.27-44.32,102.27-99h-204.55c0,54.68,45.79,99,102.27,99Z"/>
  <g>
    <path class="cls-2" d="M536.37,418.71c56.48,0,102.27-44.32,102.27-99h-204.55c0,54.68,45.79,99,102.27,99Z"/>
    <path class="cls-1" d="M638.64,319.75c-.02,54.66-45.8,98.96-102.27,98.96s-102.25-44.3-102.27-98.96h-3.05v102.9h210.65v-102.9h-3.05Z"/>
  </g>
  <g>
    <path class="cls-2" d="M325.73,312.73c56.48,0,102.27-44.32,102.27-99h-204.55c0,54.68,45.79,99,102.27,99Z"/>
    <path class="cls-1" d="M428,213.77c-.02,54.66-45.8,98.96-102.27,98.96s-102.25-44.3-102.27-98.96h-3.05v102.9h210.65v-102.9h-3.05Z"/>
  </g>
  <g>
    <path class="cls-2" d="M536.37,312.73c56.48,0,102.27-44.32,102.27-99h-204.55c0,54.68,45.79,99,102.27,99Z"/>
    <path class="cls-1" d="M638.64,213.77c-.02,54.66-45.8,98.96-102.27,98.96s-102.25-44.3-102.27-98.96h-3.05v102.9h210.65v-102.9h-3.05Z"/>
  </g>
  <path class="cls-2" d="M55.58,314.53c28.9,0,52.32-22.68,52.32-50.65H3.25c0,27.97,23.43,50.65,52.32,50.65Z"/>
  <path class="cls-2" d="M163.34,314.53c28.9,0,52.32-22.68,52.32-50.65h-104.65c0,27.97,23.43,50.65,52.32,50.65Z"/>
  <path class="cls-2" d="M536.37,426.64c-56.48,0-102.27,44.81-102.27,100.08h204.55c0-55.27-45.79-100.08-102.27-100.08Z"/>
  <path class="cls-2" d="M325.73,426.64c-56.48,0-102.27,44.81-102.27,100.08h204.55c0-55.27-45.79-100.08-102.27-100.08Z"/>
  <path class="cls-1" d="M107.9,263.91c-.01,27.96-23.43,50.63-52.32,50.63S3.27,291.87,3.25,263.91h-1.56v52.65h107.77v-52.65h-1.56Z"/>
  <path class="cls-1" d="M215.67,263.91c-.01,27.96-23.43,50.63-52.32,50.63s-52.31-22.67-52.32-50.63h-1.56v52.65h107.77v-52.65h-1.56Z"/>
  <path class="cls-1" d="M428,319.75c-.02,54.66-45.8,98.96-102.27,98.96s-102.25-44.3-102.27-98.96h-3.05v102.9h210.65v-102.9h-3.05Z"/>
  <path class="cls-1" d="M220.4,422.66v104.02h3.05c.02-55.25,45.8-100.04,102.27-100.04s102.25,44.78,102.27,100.04h3.05v-104.02h-210.65Z"/>
  <path class="cls-1" d="M431.05,422.66v104.02h3.05c.02-55.25,45.8-100.04,102.27-100.04s102.25,44.78,102.27,100.04h3.05v-104.02h-210.65Z"/>
</svg>