<?xml version="1.0" encoding="utf-8"?>
<!-- Generator: Adobe Illustrator 27.0.0, SVG Export Plug-In . SVG Version: 6.00 Build 0)  -->
<svg version="1.1" id="Layer_1" xmlns="http://www.w3.org/2000/svg" xmlns:xlink="http://www.w3.org/1999/xlink" x="0px" y="0px"
	 viewBox="0 0 1190.55 693.67" style="enable-background:new 0 0 1190.55 693.67;" xml:space="preserve">
<style type="text/css">
	.st0{fill:#FFFFFF;}
</style>
<g>
	<g>
		<path class="st0" d="M881.66,316.37v-24.7h-6.48v-5.26h18.19v5.26h-6.48v24.7H881.66z"/>
		<path class="st0" d="M904.01,301.09v15.29h-5.22v-29.96h5.22v9.42h5.22v-9.42h5.22v29.96h-5.22v-15.29H904.01z M904.01,295.83
			h5.22H904.01z"/>
		<path class="st0" d="M922.71,286.42h15.32v5.26h-10.1v4.16h6.96v5.59h-6.96v9.72h11.84v5.22h-17.06V286.42z"/>
		<path class="st0" d="M972.84,286.38v29.99h-5.22v-19.21l-4.88,5.56l-4.51-5.56v19.21h-5.22v-29.99h4.54l5.19,7.64l5.22-7.64
			H972.84z"/>
		<path class="st0" d="M998.78,286.42v23c0,1.11-0.25,2.11-0.75,3c-0.5,0.89-1.17,1.64-2,2.25c-0.83,0.61-1.77,1.09-2.83,1.42
			s-2.14,0.5-3.26,0.5s-2.22-0.17-3.33-0.5c-1.1-0.33-2.09-0.8-2.95-1.42c-0.86-0.61-1.57-1.36-2.11-2.25
			c-0.55-0.89-0.82-1.89-0.82-3v-23h5.22v21.36c0,0.75,0.1,1.36,0.29,1.84c0.19,0.48,0.47,0.85,0.82,1.13s0.77,0.46,1.26,0.56
			s1.03,0.15,1.62,0.15c0.59,0,1.11-0.05,1.55-0.15c0.44-0.1,0.82-0.29,1.12-0.56c0.31-0.27,0.54-0.65,0.7-1.13
			c0.16-0.48,0.24-1.09,0.24-1.84v-21.36H998.78z"/>
		<path class="st0" d="M1010.73,308.08c0.3,0.68,0.67,1.27,1.13,1.77c0.45,0.5,1.01,0.89,1.65,1.18c0.65,0.28,1.38,0.43,2.2,0.43
			c1.05,0,1.91-0.17,2.59-0.51c0.68-0.34,1.23-0.79,1.64-1.33c0.41-0.55,0.69-1.14,0.85-1.79c0.16-0.65,0.24-1.28,0.24-1.89
			c0-0.89-0.27-1.68-0.82-2.39c-0.55-0.7-1.23-1.37-2.06-2c-0.83-0.63-1.72-1.25-2.68-1.86c-0.96-0.61-1.85-1.28-2.68-2
			c-0.83-0.72-1.52-1.51-2.06-2.39s-0.82-1.88-0.82-3.02c0-0.84,0.18-1.64,0.53-2.41c0.35-0.76,0.83-1.43,1.43-2
			c0.6-0.57,1.29-1.02,2.06-1.36c0.77-0.34,1.58-0.51,2.42-0.51c0.84,0,1.66,0.17,2.46,0.51c0.8,0.34,1.51,0.8,2.13,1.36
			c0.63,0.57,1.13,1.23,1.5,2s0.56,1.56,0.56,2.41h-4.91c0-0.41-0.14-0.76-0.43-1.06c-0.28-0.3-0.64-0.44-1.07-0.44
			c-0.39,0-0.73,0.15-1.02,0.44c-0.3,0.3-0.44,0.65-0.44,1.06c0,0.55,0.28,1.06,0.85,1.55c0.57,0.49,1.28,1.01,2.13,1.55
			c0.85,0.55,1.77,1.14,2.76,1.79c0.99,0.65,1.91,1.4,2.76,2.25c0.85,0.85,1.56,1.83,2.13,2.92c0.57,1.09,0.85,2.35,0.85,3.79
			c0,1.16-0.22,2.37-0.65,3.62c-0.43,1.25-1.07,2.39-1.93,3.41c-0.85,1.02-1.93,1.87-3.22,2.54c-1.3,0.67-2.8,1.01-4.5,1.01
			c-1.73,0-3.26-0.27-4.61-0.82c-1.34-0.55-2.49-1.3-3.45-2.25c-0.96-0.96-1.71-2.09-2.27-3.41c-0.56-1.32-0.92-2.76-1.07-4.33h5.22
			C1010.24,306.67,1010.44,307.4,1010.73,308.08z"/>
		<path class="st0" d="M1038.78,316.37h-5.22v-29.96h5.22V316.37z"/>
		<path class="st0" d="M1060.86,291.31c-0.46-0.08-0.92-0.12-1.4-0.12c-1.34,0-2.58,0.27-3.72,0.82c-1.14,0.55-2.12,1.29-2.95,2.23
			c-0.83,0.94-1.48,2.05-1.96,3.31c-0.48,1.26-0.72,2.6-0.72,4.01c0,1.41,0.24,2.73,0.72,3.96c0.48,1.23,1.13,2.29,1.96,3.19
			c0.83,0.9,1.81,1.6,2.95,2.12c1.14,0.51,2.38,0.77,3.72,0.77c0.93,0,1.83-0.14,2.7-0.41v5.12c-0.34,0.05-0.67,0.09-0.99,0.14
			c-0.27,0.05-0.56,0.08-0.87,0.1c-0.31,0.02-0.59,0.03-0.84,0.03c-2,0-3.87-0.39-5.61-1.18s-3.26-1.85-4.56-3.21
			c-1.3-1.35-2.31-2.94-3.05-4.76c-0.74-1.82-1.11-3.78-1.11-5.87c0-2.09,0.37-4.07,1.11-5.92c0.74-1.85,1.76-3.48,3.05-4.88
			c1.3-1.4,2.82-2.51,4.56-3.33s3.61-1.23,5.61-1.23c0.25,0,0.53,0.01,0.84,0.03c0.31,0.02,0.6,0.06,0.87,0.1
			c0.32,0.05,0.65,0.09,0.99,0.14v5.15C1061.75,291.5,1061.32,291.39,1060.86,291.31z"/>
		<path class="st0" d="M1068.92,316.34h-5.19l11.05-30.67l11.05,30.67h-5.19l-1.88-5.22h-7.98L1068.92,316.34z M1076.91,305.9
			l-2.11-5.87l-2.08,5.87H1076.91z"/>
		<path class="st0" d="M1095.2,311.15h11.84v5.22h-17.06v-29.96h5.22V311.15z"/>
	</g>
	<g>
		<path class="st0" d="M101.39,415.67v-68.14H83.51v-14.49h50.17v14.49H115.8v68.14H101.39z"/>
		<path class="st0" d="M163.05,373.5v42.17h-14.4v-82.64h14.4v25.98h14.4v-25.98h14.4v82.64h-14.4V373.5H163.05z M163.05,359.01
			h14.4H163.05z"/>
		<path class="st0" d="M214.64,333.03h42.26v14.49h-27.86v11.48h19.2v15.44h-19.2v26.82h32.66v14.4h-47.06V333.03z"/>
		<path class="st0" d="M312.63,373.5v42.17h-14.4v-82.64h14.4v25.98h14.4v-25.98h14.4v82.64h-14.4V373.5H312.63z M312.63,359.01
			h14.4H312.63z"/>
		<path class="st0" d="M376.64,415.67h-14.4v-82.64h14.4V415.67z"/>
		<path class="st0" d="M428.6,337.12c4.58,2.29,8.55,5.27,11.91,8.94c3.36,3.67,5.99,7.92,7.91,12.75
			c1.91,4.83,2.87,10.01,2.87,15.53c0,5.59-0.96,10.82-2.87,15.72c-1.91,4.89-4.55,9.21-7.91,12.94c-3.36,3.73-7.33,6.72-11.91,8.94
			c-4.58,2.23-9.51,3.47-14.78,3.72h-14.4v-82.73h14.4C419.1,333.44,424.02,334.83,428.6,337.12z M423.29,398.68
			c2.92-1.47,5.46-3.4,7.62-5.79c2.16-2.38,3.86-5.16,5.08-8.33c1.22-3.17,1.84-6.57,1.84-10.21c0-3.39-0.61-6.59-1.84-9.6
			c-1.22-3.01-2.92-5.69-5.08-8.05c-2.17-2.35-4.71-4.25-7.62-5.69c-2.92-1.44-6.07-2.29-9.46-2.54v52.8
			C417.22,401.01,420.37,400.15,423.29,398.68z"/>
		<path class="st0" d="M498.36,337.12c4.58,2.29,8.55,5.27,11.91,8.94c3.36,3.67,5.99,7.92,7.91,12.75
			c1.91,4.83,2.87,10.01,2.87,15.53c0,5.59-0.96,10.82-2.87,15.72c-1.91,4.89-4.55,9.21-7.91,12.94c-3.36,3.73-7.33,6.72-11.91,8.94
			c-4.58,2.23-9.51,3.47-14.78,3.72h-14.4v-82.73h14.4C488.85,333.44,493.78,334.83,498.36,337.12z M493.04,398.68
			c2.92-1.47,5.46-3.4,7.62-5.79c2.16-2.38,3.86-5.16,5.08-8.33c1.22-3.17,1.84-6.57,1.84-10.21c0-3.39-0.61-6.59-1.84-9.6
			c-1.22-3.01-2.92-5.69-5.08-8.05c-2.17-2.35-4.71-4.25-7.62-5.69c-2.92-1.44-6.07-2.29-9.46-2.54v52.8
			C486.97,401.01,490.12,400.15,493.04,398.68z"/>
		<path class="st0" d="M538.94,333.03h42.26v14.49h-27.86v11.48h19.2v15.44h-19.2v26.82H586v14.4h-47.06V333.03z"/>
		<path class="st0" d="M613.58,415.67h-14.4v-84.61l34.45,43.86v-41.88h14.4v84.52l-34.45-43.86V415.67z"/>
		<path class="st0" d="M698.97,392.79c0.81,1.88,1.85,3.51,3.11,4.89c1.25,1.38,2.78,2.46,4.56,3.25c1.79,0.78,3.81,1.18,6.07,1.18
			c2.89,0,5.27-0.47,7.15-1.41c1.88-0.94,3.39-2.17,4.52-3.67c1.13-1.51,1.91-3.15,2.35-4.94c0.44-1.79,0.66-3.53,0.66-5.22
			c0-2.45-0.75-4.64-2.26-6.59c-1.51-1.95-3.4-3.78-5.7-5.51c-2.29-1.73-4.75-3.44-7.39-5.13c-2.64-1.69-5.1-3.53-7.39-5.51
			c-2.29-1.98-4.19-4.17-5.69-6.59c-1.51-2.42-2.26-5.19-2.26-8.33c0-2.32,0.49-4.53,1.46-6.64c0.97-2.1,2.29-3.94,3.95-5.51
			c1.66-1.57,3.56-2.82,5.7-3.76c2.13-0.94,4.36-1.41,6.68-1.41s4.58,0.47,6.78,1.41c2.2,0.94,4.16,2.2,5.88,3.76
			s3.11,3.4,4.14,5.51c1.03,2.1,1.55,4.31,1.55,6.64H719.3c0-1.13-0.39-2.1-1.18-2.92c-0.78-0.82-1.77-1.22-2.97-1.22
			c-1.07,0-2.01,0.41-2.82,1.22c-0.81,0.82-1.22,1.79-1.22,2.92c0,1.51,0.78,2.93,2.35,4.28c1.57,1.35,3.53,2.78,5.88,4.28
			c2.35,1.51,4.89,3.15,7.62,4.94c2.73,1.79,5.27,3.86,7.62,6.21s4.31,5.04,5.88,8.05c1.57,3.01,2.35,6.49,2.35,10.45
			c0,3.2-0.59,6.52-1.79,9.98c-1.19,3.45-2.97,6.59-5.32,9.41c-2.35,2.82-5.32,5.16-8.9,7.01c-3.58,1.85-7.72,2.78-12.42,2.78
			c-4.77,0-9-0.75-12.71-2.26c-3.7-1.51-6.87-3.58-9.51-6.21c-2.64-2.64-4.72-5.77-6.26-9.41s-2.53-7.62-2.96-11.95h14.4
			C697.62,388.9,698.15,390.91,698.97,392.79z"/>
		<path class="st0" d="M758.65,415.57h-14.31l30.49-84.61l30.49,84.61h-14.31l-5.18-14.4h-22.02L758.65,415.57z M780.67,386.77
			l-5.84-16.19l-5.74,16.19H780.67z"/>
		<path class="st0" d="M831.13,401.27h32.66v14.4h-47.06v-82.64h14.4V401.27z"/>
		<path class="st0" d="M876.6,358.49c1.95-5.11,4.64-9.6,8.09-13.46c3.45-3.86,7.53-6.92,12.24-9.18c4.71-2.26,9.82-3.39,15.34-3.39
			c5.52,0,10.65,1.13,15.39,3.39c4.74,2.26,8.83,5.32,12.28,9.18c3.45,3.86,6.15,8.35,8.09,13.46c1.95,5.11,2.92,10.56,2.92,16.33
			c0,5.77-0.97,11.17-2.92,16.19c-1.95,5.02-4.64,9.4-8.09,13.13c-3.45,3.73-7.54,6.68-12.28,8.85c-4.74,2.17-9.87,3.25-15.39,3.25
			c-5.52,0-10.64-1.08-15.34-3.25c-4.71-2.17-8.79-5.11-12.24-8.85c-3.45-3.73-6.15-8.11-8.09-13.13
			c-1.95-5.02-2.92-10.42-2.92-16.19C873.68,369.05,874.66,363.6,876.6,358.49z M889.97,385.41c1.19,3.3,2.84,6.13,4.94,8.52
			c2.1,2.38,4.63,4.27,7.58,5.65c2.95,1.38,6.21,2.07,9.79,2.07s6.85-0.69,9.84-2.07c2.98-1.38,5.52-3.26,7.62-5.65
			c2.1-2.39,3.75-5.22,4.94-8.52c1.19-3.29,1.79-6.82,1.79-10.59c0-3.76-0.6-7.34-1.79-10.73c-1.19-3.39-2.84-6.34-4.94-8.85
			c-2.1-2.51-4.64-4.5-7.62-5.98c-2.98-1.47-6.26-2.21-9.84-2.21s-6.84,0.74-9.79,2.21c-2.95,1.47-5.48,3.47-7.58,5.98
			c-2.1,2.51-3.75,5.46-4.94,8.85c-1.19,3.39-1.79,6.96-1.79,10.73C888.18,378.58,888.77,382.11,889.97,385.41z"/>
		<path class="st0" d="M966.12,358.49c1.95-5.11,4.64-9.6,8.09-13.46c3.45-3.86,7.53-6.92,12.24-9.18
			c4.71-2.26,9.82-3.39,15.34-3.39c5.52,0,10.65,1.13,15.39,3.39c4.74,2.26,8.83,5.32,12.28,9.18c3.45,3.86,6.15,8.35,8.09,13.46
			c1.95,5.11,2.92,10.56,2.92,16.33c0,5.77-0.97,11.17-2.92,16.19c-1.95,5.02-4.64,9.4-8.09,13.13c-3.45,3.73-7.54,6.68-12.28,8.85
			c-4.74,2.17-9.87,3.25-15.39,3.25c-5.52,0-10.64-1.08-15.34-3.25c-4.71-2.17-8.79-5.11-12.24-8.85
			c-3.45-3.73-6.15-8.11-8.09-13.13c-1.95-5.02-2.92-10.42-2.92-16.19C963.21,369.05,964.18,363.6,966.12,358.49z M979.49,385.41
			c1.19,3.3,2.84,6.13,4.94,8.52c2.1,2.38,4.63,4.27,7.58,5.65c2.95,1.38,6.21,2.07,9.79,2.07s6.85-0.69,9.84-2.07
			c2.98-1.38,5.52-3.26,7.62-5.65c2.1-2.39,3.75-5.22,4.94-8.52c1.19-3.29,1.79-6.82,1.79-10.59c0-3.76-0.6-7.34-1.79-10.73
			c-1.19-3.39-2.84-6.34-4.94-8.85c-2.1-2.51-4.64-4.5-7.62-5.98c-2.98-1.47-6.26-2.21-9.84-2.21s-6.84,0.74-9.79,2.21
			c-2.95,1.47-5.48,3.47-7.58,5.98c-2.1,2.51-3.75,5.46-4.94,8.85c-1.19,3.39-1.79,6.96-1.79,10.73
			C977.7,378.58,978.3,382.11,979.49,385.41z"/>
		<path class="st0" d="M1072.4,415.67H1058v-84.61l34.45,43.86v-41.88h14.4v84.52l-34.45-43.86V415.67z"/>
	</g>
	<g>
		<path class="st0" d="M88.67,290.09v0.29v0.86v3.01v0.34c1.5-1.53,3.16-2.71,4.97-3.54c2.74-1.21,5.18-1.39,7.32-0.53
			c2.49,1.05,3.76,3.11,3.83,6.17c0,1.44,0.02,3.16,0.05,5.17v2.39c0.03,1.15,0.05,2.63,0.05,4.45v0.34v0.91v2.68v2.68v0.91v0.34
			h-4.93v-0.34v-0.86v-2.73v-1.29h-0.05c0.03-1.75,0.03-4.1,0-7.03v-2.39c-0.03-1.82-0.05-3.43-0.05-4.83c0-0.67-0.1-1.18-0.29-1.53
			c-0.06-0.16-0.22-0.32-0.48-0.48c-0.83-0.32-1.98-0.16-3.44,0.48c-1.82,0.83-3.35,2.1-4.59,3.83c-1.4,1.95-2.2,4.15-2.39,6.6v6.51
			v3.01v0.86v0.29h-4.93v-0.29v-0.86v-3.01v-6.6v-0.1v-2.39v-9.14v-3.01v-0.86v-0.29H88.67z"/>
		<path class="st0" d="M100.19,287.17c-0.13,0.06-0.24,0.1-0.33,0.1c-1.98,0.38-3.65,0.06-5.02-0.96c-1.27-0.92-1.99-2.22-2.15-3.87
			c-0.19-1.53,0.16-2.92,1.05-4.16c1.05-1.34,2.49-2.06,4.31-2.15c1.82-0.06,3.27,0.45,4.35,1.53c1.02,0.93,1.58,2.14,1.67,3.64
			c0.06,1.34-0.26,2.57-0.98,3.71C102.37,286.13,101.41,286.85,100.19,287.17z M99.05,283.3c0.29-0.06,0.53-0.27,0.72-0.62
			c0.19-0.35,0.27-0.73,0.24-1.15c-0.06-0.45-0.19-0.76-0.38-0.96c-0.32-0.25-0.8-0.38-1.44-0.38c-0.54,0.03-0.94,0.21-1.2,0.53
			c-0.25,0.35-0.35,0.78-0.29,1.29c0.06,0.48,0.26,0.83,0.57,1.05c0.42,0.29,0.96,0.37,1.63,0.24H99.05z M122.29,316.49
			c0.03-3.03,0.03-6.62,0-10.76v-1.82v-5.84c-0.1-0.83-0.5-1.55-1.2-2.15c-0.96-0.8-2.18-1.23-3.68-1.29
			c-1.53-0.06-2.73,0.27-3.59,1c-0.96,0.77-1.44,1.91-1.44,3.44l-4.93,0.05c0-3.16,1.1-5.61,3.3-7.37c1.85-1.47,4.13-2.15,6.84-2.06
			c2.55,0.1,4.77,0.91,6.65,2.44c1.75,1.44,2.73,3.25,2.92,5.45h0.05v0.24v1.2v4.83v1.87c0.03,4.15,0.03,7.75,0,10.81L122.29,316.49
			z"/>
		<path class="st0" d="M133.01,290.14c3.73,2.42,5.61,5.04,5.64,7.84c0.03,0.7-0.11,1.63-0.43,2.77c-0.1,0.35-0.24,0.75-0.43,1.2
			c-0.06,0.32-0.21,0.7-0.43,1.15c-0.45,1.37-0.72,2.31-0.81,2.82c-0.13,0.89-0.17,1.6-0.14,2.11c0.03,1.5,0.46,2.6,1.29,3.3
			c0.83,0.67,1.91,0.96,3.25,0.86c1.56-0.1,3.04-0.7,4.45-1.82c1.5-1.12,2.66-2.65,3.49-4.59v-2.25c0-2.42-0.02-4.51-0.05-6.26
			v-7.13h4.93v7.08c0.03,1.75,0.05,3.86,0.05,6.31c0,2.33-0.01,4.95-0.03,7.87s-0.02,4.7-0.02,5.33l-4.93-0.05v-2.77
			c-0.06,0.06-0.14,0.14-0.24,0.21c-0.1,0.08-0.16,0.14-0.19,0.17c-2.23,1.69-4.59,2.63-7.08,2.82c-2.71,0.19-4.96-0.48-6.74-2.01
			c-1.59-1.31-2.57-3.04-2.92-5.21h-0.05c-0.22-1.63-0.19-3.24,0.1-4.83c0.16-0.96,0.51-2.18,1.05-3.68
			c0.06-0.32,0.21-0.69,0.43-1.1c0.16-0.41,0.26-0.73,0.29-0.96c0.16-0.48,0.24-0.91,0.24-1.29c0-0.41-0.16-0.84-0.48-1.29
			c-0.51-0.7-1.48-1.53-2.92-2.49L133.01,290.14z"/>
		<path class="st0" d="M157.11,298.32c0.1-2.81,1.32-5.01,3.68-6.6c1.95-1.34,4.26-2.01,6.94-2.01c2.74,0.06,5.05,0.81,6.94,2.25
			c2.3,1.75,3.49,4.1,3.59,7.03h-0.05c0.03,0.06,0.05,0.14,0.05,0.24c0,1.79-0.03,4.14-0.1,7.08c0.03,0.1,0.05,0.26,0.05,0.48
			c-0.13,3.09-1.32,5.57-3.59,7.41c-1.91,1.6-4.21,2.42-6.89,2.49c-2.58,0.06-4.86-0.57-6.84-1.91c-1.91-1.37-3.06-3.11-3.44-5.21
			c-0.1-0.29-0.14-0.57-0.14-0.86v-0.34v-1c-0.03-0.19-0.05-1.27-0.05-3.25v-0.14v-3.35h0.14h3.78h1v0.05h3.97l-0.05,4.93h-3.87v0.1
			v1.2v0.05v0.19v0.91v0.14c0.06,1.08,0.56,1.93,1.48,2.53c1.05,0.77,2.34,1.12,3.87,1.05c1.56-0.06,2.87-0.51,3.92-1.34
			c0.96-0.83,1.53-1.91,1.72-3.25c0.06-3.38,0.1-6.03,0.1-7.94v-0.14c-0.03-1.34-0.57-2.41-1.63-3.2c-1.02-0.77-2.36-1.18-4.02-1.24
			c-1.63,0-2.98,0.37-4.07,1.1c-1.02,0.73-1.55,1.67-1.58,2.82L157.11,298.32z"/>
		<path class="st0" d="M187.34,289.9c5.26-0.38,9.36,0.77,12.29,3.44c2.68,2.49,3.92,5.66,3.73,9.52c-0.19,3.63-1.61,6.78-4.26,9.42
			c-2.71,2.71-6.06,4.11-10.05,4.21l-0.43,0.14v-0.05c-0.03-0.03-0.05-0.06-0.05-0.1h-0.1v-0.29c-3.76-10.01-6.63-17.54-8.61-22.58
			l4.59-1.82c2.33,6,4.78,12.42,7.37,19.28c1.4-0.41,2.66-1.18,3.78-2.3c1.72-1.72,2.66-3.79,2.82-6.22
			c0.16-2.26-0.54-4.13-2.11-5.6c-1.91-1.72-4.78-2.44-8.61-2.15L187.34,289.9z"/>
		<path class="st0" d="M208.43,289.9c3.73,2.49,5.6,5.1,5.6,7.84c0.03,0.73-0.11,1.67-0.43,2.82c-0.06,0.29-0.21,0.69-0.43,1.2
			c-0.1,0.38-0.24,0.76-0.43,1.15c-0.38,1.12-0.65,2.06-0.81,2.82c-0.16,0.96-0.19,1.88-0.1,2.77c0.1,0.99,0.46,1.8,1.1,2.44
			c0.61,0.51,1.26,0.78,1.96,0.81c0.64,0.06,1.16-0.1,1.58-0.48c0.48-0.48,0.73-1.18,0.76-2.1c0.03-1.4,0.02-5.21-0.05-11.43
			c-0.03-2.55-0.05-5.09-0.05-7.6h4.93c0,2.49,0.02,4.99,0.05,7.51c0.06,6.28,0.08,10.14,0.05,11.58c-0.06,2.36-0.86,4.26-2.39,5.69
			c-1.44,1.27-3.16,1.86-5.17,1.77c-1.91-0.1-3.59-0.81-5.02-2.15c-1.37-1.27-2.23-2.9-2.58-4.88c-0.22-1.59-0.19-3.21,0.1-4.83
			c0.16-0.99,0.51-2.2,1.05-3.63c0.1-0.38,0.24-0.77,0.43-1.15c0.16-0.41,0.25-0.72,0.29-0.91c0.16-0.48,0.24-0.91,0.24-1.29
			c0-0.41-0.16-0.85-0.48-1.29c-0.57-0.77-1.55-1.61-2.92-2.53L208.43,289.9z"/>
		<path class="st0" d="M225.51,298.32c0.1-2.81,1.32-5.01,3.68-6.6c1.95-1.34,4.26-2.01,6.94-2.01c2.74,0.06,5.05,0.81,6.94,2.25
			c2.3,1.75,3.49,4.1,3.59,7.03h-0.05c0.03,0.06,0.05,0.14,0.05,0.24c0,1.79-0.03,4.14-0.1,7.08c0.03,0.1,0.05,0.26,0.05,0.48
			c-0.13,3.09-1.32,5.57-3.59,7.41c-1.91,1.6-4.21,2.42-6.89,2.49c-2.58,0.06-4.86-0.57-6.84-1.91c-1.91-1.37-3.06-3.11-3.44-5.21
			c-0.1-0.29-0.14-0.57-0.14-0.86v-0.34v-1c-0.03-0.19-0.05-1.27-0.05-3.25v-0.14v-3.35h0.14h3.78h1v0.05h3.97l-0.05,4.93h-3.87v0.1
			v1.2v0.05v0.19v0.91v0.14c0.06,1.08,0.56,1.93,1.48,2.53c1.05,0.77,2.34,1.12,3.87,1.05c1.56-0.06,2.87-0.51,3.92-1.34
			c0.96-0.83,1.53-1.91,1.72-3.25c0.06-3.38,0.1-6.03,0.1-7.94v-0.14c-0.03-1.34-0.57-2.41-1.63-3.2c-1.02-0.77-2.36-1.18-4.02-1.24
			c-1.63,0-2.98,0.37-4.07,1.1c-1.02,0.73-1.55,1.67-1.58,2.82L225.51,298.32z"/>
		<path class="st0" d="M255.74,289.9c5.26-0.38,9.36,0.77,12.29,3.44c2.68,2.49,3.92,5.66,3.73,9.52c-0.19,3.63-1.61,6.78-4.26,9.42
			c-2.71,2.71-6.06,4.11-10.05,4.21l-0.43,0.14v-0.05c-0.03-0.03-0.05-0.06-0.05-0.1h-0.1v-0.29c-3.76-10.01-6.63-17.54-8.61-22.58
			l4.59-1.82c2.33,6,4.78,12.42,7.37,19.28c1.4-0.41,2.66-1.18,3.78-2.3c1.72-1.72,2.66-3.79,2.82-6.22
			c0.16-2.26-0.54-4.13-2.11-5.6c-1.91-1.72-4.78-2.44-8.61-2.15L255.74,289.9z"/>
		<path class="st0" d="M274.68,296.21c1.02-2.26,2.74-3.94,5.17-5.02c2.1-0.99,4.37-1.4,6.79-1.24c1.94,0.06,3.73,0.51,5.36,1.34
			c0.29-0.92,0.43-1.83,0.43-2.73h4.93c0,1.98-0.37,3.73-1.1,5.26c-0.03,0.1-0.22,0.45-0.57,1.05c0.41,0.89,0.62,1.79,0.62,2.68
			c0,2.52,0.03,5.07,0.1,7.65c0.03,2.23,0.05,4.61,0.05,7.13v0.62v0.48v3.16l-4.93-0.1v-3.06v-0.24v-0.34v-0.43
			c-0.06-1.21-0.45-2.36-1.15-3.44c-0.89-1.4-2.1-2.52-3.63-3.35c-1.44-0.83-2.79-1.2-4.07-1.1c-1.12,0.03-1.98,0.48-2.58,1.34
			c-0.51,0.77-0.72,1.67-0.62,2.73c0.1,1.02,0.49,1.8,1.2,2.34c0.83,0.67,1.98,0.89,3.44,0.67l0.72,4.88
			c-2.9,0.45-5.33-0.13-7.27-1.72c-1.75-1.4-2.76-3.28-3.01-5.64c-0.26-2.3,0.25-4.32,1.53-6.08c1.4-2.04,3.38-3.19,5.93-3.44v0.05
			c0.1-0.03,0.22-0.05,0.38-0.05c2.23-0.16,4.5,0.41,6.79,1.72c0.76,0.41,1.51,0.92,2.25,1.53c-0.03-1.56-0.05-3.35-0.05-5.36
			c-0.1-0.57-0.48-1.1-1.15-1.58c-0.99-0.64-2.26-1-3.83-1.1c-1.66-0.06-3.16,0.22-4.5,0.86c-1.31,0.57-2.23,1.44-2.77,2.58
			L274.68,296.21z"/>
		<path class="st0" d="M314.09,316.64c0.03-2.17,0.05-5.75,0.05-10.76v-1.82c0-1.02-0.01-2.14-0.03-3.35
			c-0.02-1.21-0.02-2.04-0.02-2.49c-0.1-0.83-0.49-1.55-1.2-2.15c-0.96-0.8-2.17-1.23-3.63-1.29c-1.47-0.06-2.66,0.27-3.59,1
			c-0.96,0.77-1.44,1.91-1.44,3.45l-4.93,0.05c0-3.16,1.1-5.6,3.3-7.32c1.88-1.5,4.16-2.2,6.84-2.11c2.58,0.1,4.78,0.91,6.6,2.44
			c1.79,1.5,2.77,3.32,2.97,5.45v0.29c0.06,0.38,0.06,0.77,0,1.15c0.03,0.86,0.05,2.49,0.05,4.88v1.82c0,5.01-0.02,8.63-0.05,10.86
			L314.09,316.64z"/>
		<path class="st0" d="M332.08,304.77v0.05c-1.15-0.1-2.03,0.11-2.63,0.62c-0.48,0.45-0.75,1.05-0.81,1.82
			c-0.1,0.83,0.13,1.64,0.67,2.44c0.7,0.89,1.63,1.5,2.77,1.82c0.67,0.16,1.27,0.22,1.82,0.19c1.5,0,2.76-0.37,3.78-1.1
			c1.02-0.73,1.63-1.72,1.82-2.97v-0.19c0.03-2.74,0.02-5.87-0.05-9.37v-0.48c-0.06-4.91-0.1-7.45-0.1-7.6h4.93
			c0,0.13,0.03,2.65,0.1,7.56v0.43c0.06,3.76,0.08,7.13,0.05,10.09h-0.05v0.19c-0.35,2.68-1.63,4.8-3.83,6.36
			c-1.88,1.34-4.08,2.01-6.6,2.01c-2.49,0.06-4.69-0.59-6.6-1.96c-2.17-1.56-3.4-3.71-3.68-6.46v-0.67c0-0.06,0.01-0.17,0.03-0.34
			c0.01-0.16,0.02-0.27,0.02-0.34c0.16-1.91,0.89-3.52,2.2-4.83c-1.28-1.34-1.99-2.88-2.15-4.64c-0.19-2.17,0.48-3.97,2.01-5.4
			c1.59-1.5,3.73-2.15,6.41-1.96l-0.34,4.93c-1.21-0.1-2.12,0.11-2.73,0.62c-0.35,0.35-0.51,0.81-0.48,1.39
			c0.1,0.73,0.45,1.36,1.05,1.87c0.8,0.7,1.87,1.05,3.2,1.05v4.93C332.54,304.82,332.27,304.81,332.08,304.77z"/>
		<path class="st0" d="M362.88,298.51v0.14v0.38c0,0.38-0.02,0.85-0.05,1.39c0,1.24-0.02,2.62-0.05,4.11
			c-0.03,1.53-0.06,2.92-0.1,4.16v1.39c-0.03,0.1-0.05,0.19-0.05,0.29c0.1,0.26,0.29,0.51,0.58,0.77c0.32,0.26,0.81,0.41,1.48,0.48
			c0.54,0.03,1.03-0.08,1.48-0.34c0.35-0.19,0.57-0.49,0.67-0.91c0.03-3.54,0.05-9.76,0.05-18.65v-0.38
			c-0.03-3.41-0.05-6.85-0.05-10.33h4.93c0,3.44,0.02,6.87,0.05,10.28v0.38c0,9.09-0.02,15.48-0.05,19.18h-0.05
			c0,0.29-0.02,0.5-0.05,0.62c-0.41,1.72-1.39,3.06-2.92,4.02c-1.34,0.8-2.79,1.15-4.35,1.05c-1.6-0.1-3-0.61-4.21-1.53h-0.05
			l-0.05-0.05c-0.29,0.19-0.45,0.3-0.48,0.33c-1.28,0.77-2.73,1.12-4.35,1.05c-1.59-0.1-3-0.61-4.21-1.53
			c-1.4-1.12-2.23-2.53-2.49-4.26v-0.53v-0.34c0.06-6.12,0.1-10.22,0.1-12.29c-0.1-2.14,0.41-3.89,1.53-5.26
			c0.92-1.12,2.18-1.85,3.78-2.2c1.15-0.29,2.41-0.35,3.78-0.19c0.06,0,0.15,0.01,0.26,0.02c0.11,0.02,0.18,0.02,0.21,0.02
			s0.06,0.01,0.1,0.02c0.03,0.02,0.06,0.02,0.1,0.02l-0.96,4.83h-0.05l-0.1-0.05c-0.06,0-0.11,0-0.14,0c-0.67-0.1-1.37-0.06-2.1,0.1
			c-0.41,0.06-0.78,0.26-1.1,0.58c-0.29,0.41-0.41,0.97-0.38,1.67v0.29c0,2.1-0.03,6.28-0.1,12.53c-0.03,0.03-0.05,0.08-0.05,0.14
			c0.1,0.42,0.3,0.73,0.62,0.96c0.35,0.29,0.83,0.46,1.44,0.53c0.67,0,1.18-0.11,1.53-0.34c0.29-0.16,0.51-0.43,0.67-0.81
			c0-0.16,0.02-0.29,0.05-0.38v-1.29c0.03-1.24,0.06-2.61,0.1-4.11c0.03-1.53,0.05-2.92,0.05-4.16c0.03-0.54,0.05-1,0.05-1.39v-0.38
			v-0.1L362.88,298.51z"/>
		<path class="st0" d="M377.61,290.14c3.73,2.42,5.61,5.04,5.64,7.84c0.03,0.7-0.11,1.63-0.43,2.77c-0.1,0.35-0.24,0.75-0.43,1.2
			c-0.06,0.32-0.21,0.7-0.43,1.15c-0.45,1.37-0.72,2.31-0.81,2.82c-0.13,0.89-0.17,1.6-0.14,2.11c0.03,1.5,0.46,2.6,1.29,3.3
			c0.83,0.67,1.91,0.96,3.25,0.86c1.56-0.1,3.04-0.7,4.45-1.82c1.5-1.12,2.66-2.65,3.49-4.59v-2.25c0-2.42-0.02-4.51-0.05-6.26
			v-7.13h4.93v7.08c0.03,1.75,0.05,3.86,0.05,6.31c0,2.33-0.01,4.95-0.03,7.87s-0.02,4.7-0.02,5.33l-4.93-0.05v-2.77
			c-0.06,0.06-0.14,0.14-0.24,0.21c-0.1,0.08-0.16,0.14-0.19,0.17c-2.23,1.69-4.59,2.63-7.08,2.82c-2.71,0.19-4.96-0.48-6.74-2.01
			c-1.59-1.31-2.57-3.04-2.92-5.21h-0.05c-0.22-1.63-0.19-3.24,0.1-4.83c0.16-0.96,0.51-2.18,1.05-3.68
			c0.06-0.32,0.21-0.69,0.43-1.1c0.16-0.41,0.26-0.73,0.29-0.96c0.16-0.48,0.24-0.91,0.24-1.29c0-0.41-0.16-0.84-0.48-1.29
			c-0.51-0.7-1.48-1.53-2.92-2.49L377.61,290.14z"/>
	</g>
</g>
</svg>
