<svg xml:space="preserve" style="max-height: 500px" viewBox="295.3909202453988 245.2548 645.8547239263803 385.4004" y="0px" x="0px" xmlns:xlink="http://www.w3.org/1999/xlink" xmlns="http://www.w3.org/2000/svg" version="1.1" width="645.8547239263803" height="385.4004">
<style type="text/css">
	.st0{display:none;}
	.st1{display:inline;}
	.st2{fill:url(#SVGID_1_);}
	.st3{fill:url(#SVGID_00000088828030319876695460000012628137583393600130_);}
	.st4{fill:url(#SVGID_00000103975663684374437670000012515157801561002418_);}
	.st5{fill:url(#SVGID_00000174599367714785398460000013260205597208929166_);}
	.st6{fill:url(#SVGID_00000020395684387865013800000010701872766414401711_);}
	.st7{fill:url(#SVGID_00000115502839064665714100000002351139885395601319_);}
	.st8{fill:url(#SVGID_00000176005477739665393950000006260265010824275636_);}
	.st9{fill:url(#SVGID_00000051357130422672002080000008452148915300947881_);}
	.st10{fill:url(#SVGID_00000052785541091640524810000013121384757722638992_);}
	.st11{fill:url(#SVGID_00000111877588763972866720000014996335865312220090_);}
	.st12{fill:url(#SVGID_00000006698985228449450260000008288428505802721949_);}
</style>
<g id="Layer_2">
</g>
<g class="st0" id="Layer_4">
	<g class="st1">
		
			<linearGradient gradientTransform="matrix(1 0 0 1 -499.6388 155.5963)" y2="257.5091" x2="782.8874" y1="257.5091" x1="971.2698" gradientUnits="userSpaceOnUse" id="SVGID_1_">
			<stop style="stop-color:#CF6899" offset="0.2097"/>
			<stop style="stop-color:#6D201C" offset="0.8805"/>
		</linearGradient>
		<path d="M471.63,493.67c-62.81,0-125.58,0-188.38,0c0-53.71,0-107.4,0-161.12c62.79,0,125.57,0,188.38,0&#xA;&#9;&#9;&#9;C471.63,386.25,471.63,439.92,471.63,493.67z M377.42,333.57c0,0,0-0.01,0-0.01c-14.29,0-28.59,0-42.88,0&#xA;&#9;&#9;&#9;c-0.78,0-1.56-0.02-2.33,0.05c-4.09,0.37-8.14,1.05-12.14,2.12c-7.1,1.9-13.78,4.89-19.71,9.72c-4.28,3.49-7.82,7.71-10.53,12.78&#xA;&#9;&#9;&#9;c-3.72,6.97-5.44,14.57-5.63,22.6c-0.12,5.25-0.02,10.5-0.02,15.75c0,15.05,0,30.11-0.03,45.16c-0.01,4.42,0.25,8.81,1.12,13.13&#xA;&#9;&#9;&#9;c1.62,8.02,4.92,15.04,10.12,20.93c4.44,5.03,9.72,8.67,15.59,11.28c8.31,3.7,16.99,5.52,25.92,5.55&#xA;&#9;&#9;&#9;c26.11,0.09,52.22,0.01,78.32,0.05c6.27,0.01,12.45-0.62,18.56-2.15c7.53-1.89,14.58-4.97,20.82-10.11&#xA;&#9;&#9;&#9;c4.2-3.46,7.68-7.65,10.35-12.65c3.72-6.99,5.44-14.61,5.63-22.66c0.11-4.77,0.01-9.54,0.01-14.31c0-15.52,0-31.03,0.03-46.55&#xA;&#9;&#9;&#9;c0.01-4.42-0.25-8.81-1.12-13.13c-1.54-7.62-4.61-14.37-9.42-20.1c-4.61-5.49-10.21-9.38-16.45-12.17&#xA;&#9;&#9;&#9;c-4.33-1.94-8.82-3.32-13.43-4.15c-2.81-0.5-5.66-1.07-8.5-1.09C406.94,333.52,392.18,333.57,377.42,333.57z" class="st2"/>
		
			<linearGradient gradientTransform="matrix(1 0 0 1 -499.6388 155.5963)" y2="429.9301" x2="971.2309" y1="429.9301" x1="1185.4749" gradientUnits="userSpaceOnUse" id="SVGID_00000093882921178007879890000017699600342155857336_">
			<stop style="stop-color:#B782AC" offset="0.2097"/>
			<stop style="stop-color:#CC6898" offset="0.8805"/>
		</linearGradient>
		<path d="M685.84,677.15&#xA;&#9;&#9;&#9;c-71.44,0-142.82,0-214.24,0c0-61.08,0-122.14,0-183.24c71.41,0,142.81,0,214.24,0C685.84,554.98,685.84,616.02,685.84,677.15z&#xA;&#9;&#9;&#9; M578.69,495.08c0,0,0-0.01,0-0.01c-16.26,0-32.51,0-48.77,0c-0.88,0-1.77-0.02-2.65,0.05c-4.66,0.42-9.26,1.19-13.8,2.41&#xA;&#9;&#9;&#9;c-8.08,2.17-15.67,5.56-22.41,11.05c-4.86,3.96-8.9,8.77-11.97,14.54c-4.23,7.92-6.19,16.57-6.41,25.7&#xA;&#9;&#9;&#9;c-0.14,5.97-0.02,11.94-0.02,17.92c-0.01,17.12,0.01,34.24-0.03,51.36c-0.01,5.03,0.28,10.01,1.27,14.93&#xA;&#9;&#9;&#9;c1.84,9.12,5.6,17.11,11.51,23.81c5.05,5.72,11.06,9.86,17.73,12.83c9.45,4.21,19.32,6.27,29.47,6.31&#xA;&#9;&#9;&#9;c29.69,0.1,59.38,0.01,89.08,0.06c7.13,0.01,14.16-0.71,21.11-2.45c8.56-2.14,16.59-5.65,23.68-11.5&#xA;&#9;&#9;&#9;c4.78-3.94,8.74-8.7,11.77-14.38c4.23-7.95,6.18-16.62,6.4-25.78c0.13-5.42,0.02-10.85,0.02-16.28&#xA;&#9;&#9;&#9;c0.01-17.65-0.01-35.29,0.03-52.94c0.01-5.03-0.29-10.01-1.28-14.93c-1.75-8.67-5.24-16.34-10.71-22.86&#xA;&#9;&#9;&#9;c-5.25-6.25-11.61-10.67-18.71-13.85c-4.93-2.21-10.03-3.78-15.27-4.72c-3.2-0.57-6.44-1.21-9.66-1.24&#xA;&#9;&#9;&#9;C612.27,495.01,595.48,495.08,578.69,495.08z" style="fill:url(#SVGID_00000093882921178007879890000017699600342155857336_);"/>
		
			<linearGradient gradientTransform="matrix(1 0 0 1 -499.6388 155.5963)" y2="257.744" x2="1185.7245" y1="257.744" x1="1374.1069" gradientUnits="userSpaceOnUse" id="SVGID_00000031181171511122797410000001578849895816525239_">
			<stop style="stop-color:#296F65" offset="0.2097"/>
			<stop style="stop-color:#B782AC" offset="0.8805"/>
		</linearGradient>
		<path d="M874.47,493.9&#xA;&#9;&#9;&#9;c-62.81,0-125.58,0-188.38,0c0-53.71,0-107.4,0-161.12c62.79,0,125.57,0,188.38,0C874.47,386.48,874.47,440.15,874.47,493.9z&#xA;&#9;&#9;&#9; M780.25,333.81c0,0,0-0.01,0-0.01c-14.29,0-28.59,0-42.88,0c-0.78,0-1.56-0.02-2.33,0.05c-4.09,0.37-8.14,1.05-12.14,2.12&#xA;&#9;&#9;&#9;c-7.1,1.9-13.78,4.89-19.71,9.72c-4.28,3.49-7.82,7.71-10.53,12.78c-3.72,6.97-5.44,14.57-5.63,22.6&#xA;&#9;&#9;&#9;c-0.12,5.25-0.02,10.5-0.02,15.75c0,15.05,0,30.11-0.03,45.16c-0.01,4.42,0.25,8.81,1.12,13.13c1.62,8.02,4.92,15.04,10.12,20.93&#xA;&#9;&#9;&#9;c4.44,5.03,9.72,8.67,15.59,11.28c8.31,3.7,16.99,5.52,25.92,5.55c26.11,0.09,52.22,0.01,78.32,0.05&#xA;&#9;&#9;&#9;c6.27,0.01,12.45-0.62,18.56-2.15c7.53-1.89,14.58-4.97,20.82-10.11c4.2-3.46,7.68-7.65,10.35-12.65&#xA;&#9;&#9;&#9;c3.72-6.99,5.44-14.61,5.63-22.66c0.11-4.77,0.01-9.54,0.01-14.31c0-15.52,0-31.03,0.03-46.55c0.01-4.42-0.25-8.81-1.12-13.13&#xA;&#9;&#9;&#9;c-1.54-7.62-4.61-14.37-9.42-20.1c-4.61-5.49-10.21-9.38-16.45-12.17c-4.33-1.94-8.82-3.32-13.43-4.15&#xA;&#9;&#9;&#9;c-2.81-0.5-5.66-1.07-8.5-1.09C809.78,333.75,795.02,333.81,780.25,333.81z" style="fill:url(#SVGID_00000031181171511122797410000001578849895816525239_);"/>
		
			<linearGradient gradientTransform="matrix(1 0 0 1 -499.6388 155.5963)" y2="132.6953" x2="971.4595" y1="132.6953" x1="1075.9124" gradientUnits="userSpaceOnUse" id="SVGID_00000033341515938049762600000005491413099002242448_">
			<stop style="stop-color:#A83521" offset="0.2097"/>
			<stop style="stop-color:#CC6898" offset="0.8805"/>
		</linearGradient>
		<path d="M576.27,332.96&#xA;&#9;&#9;&#9;c-34.83,0-69.63,0-104.45,0c0-29.78,0-59.55,0-89.34c34.82,0,69.63,0,104.45,0C576.27,273.4,576.27,303.16,576.27,332.96z&#xA;&#9;&#9;&#9; M524.03,244.19C524.03,244.19,524.03,244.19,524.03,244.19c-7.93-0.01-15.85-0.01-23.78,0c-0.43,0-0.86-0.01-1.29,0.03&#xA;&#9;&#9;&#9;c-2.27,0.2-4.52,0.58-6.73,1.18c-3.94,1.06-7.64,2.71-10.93,5.39c-2.37,1.93-4.34,4.28-5.84,7.09c-2.06,3.86-3.02,8.08-3.12,12.53&#xA;&#9;&#9;&#9;c-0.07,2.91-0.01,5.82-0.01,8.74c0,8.35,0,16.69-0.02,25.04c-0.01,2.45,0.14,4.88,0.62,7.28c0.9,4.45,2.73,8.34,5.61,11.61&#xA;&#9;&#9;&#9;c2.46,2.79,5.39,4.81,8.64,6.26c4.61,2.05,9.42,3.06,14.37,3.08c14.48,0.05,28.95,0,43.43,0.03c3.47,0.01,6.9-0.35,10.29-1.19&#xA;&#9;&#9;&#9;c4.17-1.05,8.09-2.75,11.55-5.61c2.33-1.92,4.26-4.24,5.74-7.01c2.06-3.87,3.01-8.1,3.12-12.57c0.06-2.64,0.01-5.29,0.01-7.94&#xA;&#9;&#9;&#9;c0-8.6,0-17.21,0.02-25.81c0.01-2.45-0.14-4.88-0.62-7.28c-0.85-4.23-2.55-7.97-5.22-11.15c-2.56-3.05-5.66-5.2-9.12-6.75&#xA;&#9;&#9;&#9;c-2.4-1.08-4.89-1.84-7.44-2.3c-1.56-0.28-3.14-0.59-4.71-0.6C540.41,244.16,532.22,244.19,524.03,244.19z" style="fill:url(#SVGID_00000033341515938049762600000005491413099002242448_);"/>
		
			<linearGradient gradientTransform="matrix(1 0 0 1 -499.6388 155.5963)" y2="29.2967" x2="834.4764" y1="29.2967" x1="971.345" gradientUnits="userSpaceOnUse" id="SVGID_00000025443963547855005560000015086022138418141361_">
			<stop style="stop-color:#B54923" offset="0.2097"/>
			<stop style="stop-color:#561E17" offset="0.8805"/>
		</linearGradient>
		<path d="M471.71,243.42&#xA;&#9;&#9;&#9;c-45.64,0-91.24,0-136.87,0c0-39.02,0-78.03,0-117.06c45.62,0,91.23,0,136.87,0C471.71,165.38,471.71,204.37,471.71,243.42z&#xA;&#9;&#9;&#9; M403.25,127.11C403.25,127.11,403.25,127.1,403.25,127.11c-10.39-0.01-20.77-0.01-31.16-0.01c-0.57,0-1.13-0.02-1.69,0.03&#xA;&#9;&#9;&#9;c-2.97,0.27-5.92,0.76-8.82,1.54c-5.16,1.38-10.01,3.55-14.32,7.06c-3.11,2.53-5.68,5.6-7.65,9.29&#xA;&#9;&#9;&#9;c-2.7,5.06-3.96,10.59-4.09,16.42c-0.09,3.81-0.01,7.63-0.01,11.45c0,10.94,0,21.87-0.02,32.81c-0.01,3.21,0.18,6.4,0.81,9.54&#xA;&#9;&#9;&#9;c1.18,5.83,3.58,10.93,7.35,15.21c3.23,3.66,7.06,6.3,11.32,8.2c6.04,2.69,12.34,4.01,18.83,4.03c18.97,0.06,37.94,0,56.91,0.04&#xA;&#9;&#9;&#9;c4.55,0.01,9.05-0.45,13.49-1.57c5.47-1.37,10.6-3.61,15.13-7.35c3.05-2.51,5.58-5.55,7.52-9.19c2.71-5.08,3.95-10.62,4.09-16.47&#xA;&#9;&#9;&#9;c0.08-3.46,0.01-6.93,0.01-10.4c0-11.27,0-22.54,0.02-33.82c0.01-3.21-0.18-6.4-0.82-9.54c-1.12-5.54-3.35-10.44-6.84-14.61&#xA;&#9;&#9;&#9;c-3.35-3.99-7.42-6.81-11.95-8.84c-3.15-1.41-6.41-2.41-9.75-3.01c-2.04-0.37-4.11-0.77-6.17-0.79&#xA;&#9;&#9;&#9;C424.71,127.07,413.98,127.11,403.25,127.11z" style="fill:url(#SVGID_00000025443963547855005560000015086022138418141361_);"/>
	</g>
</g>
<g id="Layer_3">
	<g>
		
			<linearGradient y2="562.4013" x2="609.9208" y1="872.6719" x1="609.9208" gradientUnits="userSpaceOnUse" id="SVGID_00000111910037279915075570000001876467151399431812_">
			<stop style="stop-color:#296F65" offset="0.5439"/>
			<stop style="stop-color:#1285C2" offset="1"/>
		</linearGradient>
		<path d="M791.3,872.67&#xA;&#9;&#9;&#9;c-120.96,0-241.82,0-362.76,0c0-103.43,0-206.82,0-310.27c120.92,0,241.81,0,362.76,0C791.3,665.82,791.3,769.17,791.3,872.67z&#xA;&#9;&#9;&#9; M609.87,564.39c0-0.01,0-0.01,0-0.02c-27.52,0-55.05,0-82.57,0c-1.5,0-3-0.04-4.49,0.09c-7.88,0.71-15.68,2.02-23.37,4.08&#xA;&#9;&#9;&#9;c-13.68,3.67-26.53,9.41-37.95,18.72c-8.23,6.71-15.07,14.85-20.27,24.61c-7.16,13.42-10.48,28.06-10.85,43.52&#xA;&#9;&#9;&#9;c-0.24,10.11-0.03,20.23-0.04,30.34c-0.01,28.99,0.01,57.98-0.06,86.97c-0.02,8.52,0.48,16.96,2.16,25.28&#xA;&#9;&#9;&#9;c3.12,15.44,9.48,28.97,19.49,40.31c8.56,9.69,18.72,16.7,30.01,21.73c16,7.12,32.72,10.62,49.91,10.68&#xA;&#9;&#9;&#9;c50.28,0.17,100.55,0.01,150.83,0.1c12.07,0.02,23.98-1.2,35.74-4.15c14.49-3.63,28.08-9.57,40.1-19.47&#xA;&#9;&#9;&#9;c8.09-6.66,14.8-14.72,19.93-24.35c7.17-13.46,10.47-28.14,10.84-43.64c0.22-9.18,0.03-18.37,0.03-27.56&#xA;&#9;&#9;&#9;c0.01-29.88-0.01-59.75,0.06-89.63c0.02-8.52-0.48-16.96-2.16-25.28c-2.96-14.67-8.87-27.67-18.14-38.71&#xA;&#9;&#9;&#9;c-8.88-10.58-19.66-18.06-31.68-23.44c-8.35-3.74-16.98-6.4-25.85-7.99c-5.42-0.97-10.9-2.05-16.36-2.09&#xA;&#9;&#9;&#9;C666.74,564.27,638.31,564.39,609.87,564.39z" style="fill:url(#SVGID_00000111910037279915075570000001876467151399431812_);"/>
		
			<linearGradient y2="295.2514" x2="575.9897" y1="43.2017" x1="575.9897" gradientUnits="userSpaceOnUse" id="SVGID_00000009551386780062928250000005850918416019321524_">
			<stop style="stop-color:#296F65" offset="0.5439"/>
			<stop style="stop-color:#1285C2" offset="1"/>
		</linearGradient>
		<path d="M428.64,43.2c98.26,0,196.44,0,294.69,0&#xA;&#9;&#9;&#9;c0,84.02,0,168.01,0,252.05c-98.23,0-196.43,0-294.69,0C428.64,211.24,428.64,127.28,428.64,43.2z M576.03,293.64&#xA;&#9;&#9;&#9;c0,0.01,0,0.01,0,0.02c22.36,0,44.72,0,67.08,0c1.22,0,2.44,0.03,3.65-0.07c6.4-0.57,12.74-1.64,18.99-3.32&#xA;&#9;&#9;&#9;c11.11-2.98,21.55-7.64,30.83-15.2c6.69-5.45,12.24-12.07,16.47-20c5.82-10.9,8.52-22.8,8.81-35.36&#xA;&#9;&#9;&#9;c0.19-8.21,0.03-16.43,0.03-24.65c0.01-23.55-0.01-47.1,0.05-70.65c0.02-6.92-0.39-13.77-1.75-20.54&#xA;&#9;&#9;&#9;c-2.53-12.54-7.7-23.53-15.84-32.75c-6.95-7.87-15.21-13.57-24.38-17.65c-13-5.79-26.58-8.63-40.54-8.68&#xA;&#9;&#9;&#9;c-40.84-0.14-81.68-0.01-122.53-0.08c-9.8-0.02-19.48,0.98-29.04,3.37c-11.77,2.95-22.81,7.77-32.58,15.82&#xA;&#9;&#9;&#9;c-6.57,5.41-12.02,11.96-16.19,19.78c-5.82,10.93-8.51,22.86-8.81,35.45c-0.18,7.46-0.02,14.92-0.02,22.39&#xA;&#9;&#9;&#9;c-0.01,24.27,0.01,48.54-0.05,72.81c-0.02,6.92,0.39,13.77,1.76,20.54c2.41,11.92,7.21,22.48,14.74,31.45&#xA;&#9;&#9;&#9;c7.22,8.59,15.97,14.67,25.74,19.04c6.78,3.03,13.79,5.2,21,6.49c4.4,0.79,8.86,1.67,13.29,1.7&#xA;&#9;&#9;&#9;C529.84,293.73,552.93,293.64,576.03,293.64z" style="fill:url(#SVGID_00000009551386780062928250000005850918416019321524_);"/>
		
			<linearGradient gradientTransform="matrix(-1 0 0 -1 1138.3126 776.9581)" y2="348.2199" x2="709.8879" y1="348.2199" x1="1022.3429" gradientUnits="userSpaceOnUse" id="SVGID_00000153695323151021249120000018018847967418869916_">
			<stop style="stop-color:#A73421" offset="0.5439"/>
			<stop style="stop-color:#733C82" offset="1"/>
		</linearGradient>
		<path d="M115.97,295.12&#xA;&#9;&#9;&#9;c104.18,0,208.29,0,312.45,0c0,89.08,0,178.13,0,267.24c-104.15,0-208.27,0-312.45,0C115.97,473.29,115.97,384.26,115.97,295.12z&#xA;&#9;&#9;&#9; M272.24,560.65c0,0.01,0,0.01,0,0.02c23.71,0,47.42,0,71.12,0c1.29,0,2.59,0.04,3.87-0.08c6.79-0.61,13.51-1.74,20.13-3.52&#xA;&#9;&#9;&#9;c11.78-3.16,22.85-8.1,32.68-16.12c7.09-5.78,12.98-12.79,17.46-21.2c6.17-11.56,9.03-24.17,9.35-37.49&#xA;&#9;&#9;&#9;c0.21-8.7,0.03-17.42,0.03-26.13c0.01-24.97-0.01-49.94,0.05-74.91c0.02-7.34-0.41-14.6-1.86-21.77&#xA;&#9;&#9;&#9;c-2.68-13.3-8.16-24.95-16.79-34.72c-7.37-8.34-16.12-14.39-25.85-18.72c-13.79-6.14-28.18-9.15-42.99-9.2&#xA;&#9;&#9;&#9;c-43.3-0.15-86.61-0.01-129.91-0.08c-10.39-0.02-20.65,1.04-30.79,3.57c-12.48,3.13-24.19,8.24-34.54,16.77&#xA;&#9;&#9;&#9;c-6.97,5.74-12.74,12.68-17.16,20.97c-6.18,11.59-9.02,24.24-9.34,37.59c-0.19,7.91-0.02,15.82-0.02,23.74&#xA;&#9;&#9;&#9;c-0.01,25.73,0.01,51.47-0.05,77.2c-0.02,7.34,0.42,14.6,1.86,21.77c2.55,12.64,7.64,23.83,15.62,33.34&#xA;&#9;&#9;&#9;c7.65,9.11,16.93,15.56,27.29,20.19c7.19,3.22,14.63,5.51,22.27,6.88c4.67,0.84,9.39,1.77,14.1,1.8&#xA;&#9;&#9;&#9;C223.26,560.75,247.75,560.65,272.24,560.65z" style="fill:url(#SVGID_00000153695323151021249120000018018847967418869916_);"/>
		
			<linearGradient gradientTransform="matrix(-1 0 0 -1 1138.3126 776.9581)" y2="348.3265" x2="34.234" y1="348.3265" x1="346.6889" gradientUnits="userSpaceOnUse" id="SVGID_00000057141374073014594890000005420938680249348242_">
			<stop style="stop-color:#1A7CB6" offset="0"/>
			<stop style="stop-color:#296F65" offset="0.2046"/>
		</linearGradient>
		<path d="M791.62,295.01&#xA;&#9;&#9;&#9;c104.18,0,208.29,0,312.46,0c0,89.08,0,178.13,0,267.24c-104.15,0-208.27,0-312.46,0C791.62,473.18,791.62,384.16,791.62,295.01z&#xA;&#9;&#9;&#9; M947.89,560.54c0,0.01,0,0.01,0,0.02c23.71,0,47.42,0,71.12,0c1.29,0,2.59,0.04,3.87-0.08c6.79-0.61,13.51-1.74,20.13-3.52&#xA;&#9;&#9;&#9;c11.78-3.16,22.85-8.1,32.68-16.12c7.09-5.78,12.98-12.79,17.46-21.2c6.17-11.56,9.03-24.17,9.35-37.49&#xA;&#9;&#9;&#9;c0.21-8.7,0.03-17.42,0.03-26.13c0.01-24.97-0.01-49.94,0.05-74.91c0.02-7.34-0.41-14.6-1.86-21.77&#xA;&#9;&#9;&#9;c-2.68-13.3-8.16-24.95-16.79-34.72c-7.37-8.34-16.12-14.39-25.85-18.72c-13.79-6.14-28.18-9.15-42.99-9.2&#xA;&#9;&#9;&#9;c-43.3-0.15-86.61-0.01-129.91-0.08c-10.39-0.02-20.65,1.04-30.79,3.57c-12.48,3.13-24.19,8.24-34.54,16.77&#xA;&#9;&#9;&#9;c-6.97,5.74-12.74,12.68-17.16,20.97c-6.18,11.59-9.02,24.24-9.34,37.59c-0.19,7.91-0.02,15.82-0.02,23.74&#xA;&#9;&#9;&#9;c-0.01,25.73,0.01,51.47-0.05,77.2c-0.02,7.34,0.42,14.6,1.86,21.77c2.55,12.64,7.64,23.83,15.62,33.34&#xA;&#9;&#9;&#9;c7.65,9.11,16.93,15.56,27.29,20.19c7.19,3.22,14.63,5.51,22.27,6.88c4.67,0.84,9.39,1.77,14.1,1.8&#xA;&#9;&#9;&#9;C898.91,560.64,923.4,560.54,947.89,560.54z" style="fill:url(#SVGID_00000057141374073014594890000005420938680249348242_);"/>
	</g>
</g>
<g class="st0" id="Layer_1">
	<g class="st1">
		
			<linearGradient y2="467.4606" x2="613.2687" y1="467.4606" x1="28.9384" gradientUnits="userSpaceOnUse" id="SVGID_00000156550743382982898210000018226218845798405760_">
			<stop style="stop-color:#713D83" offset="0.6011"/>
			<stop style="stop-color:#5A86BE" offset="1"/>
		</linearGradient>
		<path d="M613.27,717.35&#xA;&#9;&#9;&#9;c-194.84,0-389.52,0-584.33,0c0-166.6,0-333.13,0-499.78c194.78,0,389.5,0,584.33,0C613.27,384.15,613.27,550.63,613.27,717.35z&#xA;&#9;&#9;&#9; M321.03,220.77c0-0.01,0-0.02,0-0.03c-44.34,0-88.67,0-133.01,0.01c-2.41,0-4.84-0.07-7.24,0.15&#xA;&#9;&#9;&#9;c-12.7,1.14-25.26,3.26-37.65,6.58c-22.04,5.91-42.73,15.15-61.12,30.15c-13.26,10.81-24.27,23.93-32.66,39.65&#xA;&#9;&#9;&#9;c-11.53,21.61-16.89,45.2-17.48,70.11c-0.39,16.28-0.05,32.58-0.06,48.87c-0.01,46.7,0.02,93.39-0.09,140.09&#xA;&#9;&#9;&#9;c-0.03,13.72,0.77,27.31,3.48,40.72c5.02,24.87,15.26,46.66,31.4,64.93c13.78,15.61,30.15,26.91,48.35,35&#xA;&#9;&#9;&#9;c25.78,11.47,52.7,17.11,80.39,17.21c80.98,0.27,161.97,0.02,242.95,0.16c19.44,0.03,38.63-1.94,57.57-6.68&#xA;&#9;&#9;&#9;c23.34-5.85,45.24-15.41,64.6-31.36c13.03-10.74,23.83-23.72,32.1-39.22c11.55-21.68,16.87-45.33,17.46-70.3&#xA;&#9;&#9;&#9;c0.35-14.79,0.04-29.59,0.05-44.39c0.02-48.13-0.01-96.25,0.09-144.38c0.03-13.72-0.78-27.31-3.49-40.72&#xA;&#9;&#9;&#9;c-4.77-23.64-14.29-44.57-29.22-62.35c-14.31-17.04-31.66-29.09-51.03-37.76c-13.45-6.02-27.35-10.3-41.64-12.86&#xA;&#9;&#9;&#9;c-8.73-1.56-17.56-3.31-26.36-3.37C412.62,220.59,366.82,220.77,321.03,220.77z" style="fill:url(#SVGID_00000156550743382982898210000018226218845798405760_);"/>
		
			<linearGradient y2="967.3325" x2="1197.691" y1="967.3325" x1="613.3607" gradientUnits="userSpaceOnUse" id="SVGID_00000023256417915729743710000000503675761496655771_">
			<stop style="stop-color:#5D7FB7" offset="0"/>
			<stop style="stop-color:#713D83" offset="0.2865"/>
		</linearGradient>
		<path d="M1197.69,1217.22&#xA;&#9;&#9;&#9;c-194.84,0-389.52,0-584.33,0c0-166.6,0-333.13,0-499.78c194.78,0,389.5,0,584.33,0&#xA;&#9;&#9;&#9;C1197.69,884.02,1197.69,1050.51,1197.69,1217.22z M905.45,720.64c0-0.01,0-0.02,0-0.03c-44.34,0-88.67,0-133.01,0.01&#xA;&#9;&#9;&#9;c-2.41,0-4.84-0.07-7.24,0.15c-12.7,1.14-25.26,3.26-37.65,6.58c-22.04,5.91-42.73,15.15-61.12,30.15&#xA;&#9;&#9;&#9;c-13.26,10.81-24.27,23.93-32.66,39.65c-11.53,21.61-16.89,45.2-17.48,70.11c-0.39,16.28-0.05,32.58-0.06,48.87&#xA;&#9;&#9;&#9;c-0.01,46.7,0.02,93.39-0.09,140.09c-0.03,13.72,0.77,27.31,3.48,40.72c5.02,24.87,15.26,46.66,31.4,64.93&#xA;&#9;&#9;&#9;c13.78,15.61,30.15,26.91,48.35,35c25.78,11.47,52.7,17.11,80.39,17.21c80.98,0.27,161.97,0.02,242.95,0.16&#xA;&#9;&#9;&#9;c19.44,0.03,38.63-1.94,57.57-6.68c23.34-5.85,45.24-15.41,64.6-31.36c13.03-10.74,23.83-23.72,32.1-39.22&#xA;&#9;&#9;&#9;c11.55-21.68,16.87-45.33,17.46-70.3c0.35-14.79,0.04-29.59,0.05-44.39c0.02-48.13-0.01-96.25,0.09-144.38&#xA;&#9;&#9;&#9;c0.03-13.72-0.78-27.31-3.49-40.72c-4.77-23.64-14.29-44.57-29.22-62.35c-14.31-17.04-31.66-29.09-51.03-37.76&#xA;&#9;&#9;&#9;c-13.45-6.02-27.35-10.3-41.64-12.86c-8.73-1.56-17.56-3.31-26.36-3.37C997.04,720.46,951.25,720.64,905.45,720.64z" style="fill:url(#SVGID_00000023256417915729743710000000503675761496655771_);"/>
	</g>
</g>
</svg>