<?xml version="1.0" encoding="utf-8"?>
<!-- Generator: Adobe Illustrator 27.0.0, SVG Export Plug-In . SVG Version: 6.00 Build 0)  -->
<svg version="1.1" id="Layer_1" xmlns="http://www.w3.org/2000/svg" xmlns:xlink="http://www.w3.org/1999/xlink" x="0px" y="0px"
	 viewBox="0 0 640 740" style="enable-background:new 0 0 640 740;" xml:space="preserve">
<style type="text/css">
	.st0{fill:#006846;}
</style>
<g>
	<path d="M0,185.5C0,123.6,0,61.8,0,0c213.3,0,426.6,0,640,0c0,61.8,0,123.6,0,185.5C426.7,185.5,213.4,185.5,0,185.5z M322.3,180.6
		c37-0.1,73.9-1.9,110.6-5.8c23.9-2.6,47.7-6,71.3-10.7c22.9-4.6,45.4-10.3,67.3-18.6c12.1-4.6,23.8-9.9,34.6-17.1
		c7.6-5,14.5-10.8,19.5-18.7c5.5-8.8,7-18,3.2-27.9c-2.7-6.9-7.2-12.4-12.6-17.2c-8.8-7.9-19-13.6-29.6-18.5
		c-18.9-8.8-38.7-14.8-58.8-19.7c-37-9.1-74.6-14.3-112.5-17.6c-28.7-2.5-57.4-3.9-86.2-4.1c-56.5-0.3-112.8,3-168.7,12.1
		c-25.6,4.1-51,9.5-75.7,17.5c-15.2,4.9-30.1,10.7-44,18.7C32.3,57.9,24.4,63.5,18,71.2C7.2,84.4,6.8,99.1,17.1,112.7
		c5.8,7.7,13.3,13.3,21.4,18.2c15.1,9.1,31.4,15.4,48.2,20.7c20.4,6.4,41.2,11.1,62.2,14.9c28.5,5.2,57.2,8.6,86,10.8
		C264,179.6,293.1,180.7,322.3,180.6z"/>
	<path class="st0" d="M322.3,180.6c-29.2,0.1-58.4-1-87.5-3.3c-28.9-2.2-57.6-5.7-86-10.8c-21-3.8-41.8-8.5-62.2-14.9
		c-16.7-5.3-33-11.5-48.2-20.7c-8.1-4.9-15.6-10.5-21.4-18.2c-10.3-13.6-9.9-28.4,1-41.5c6.3-7.7,14.2-13.4,22.7-18.3
		c13.9-8,28.8-13.8,44-18.7c24.8-8,50.1-13.4,75.7-17.5C216.3,7.6,272.6,4.3,329.2,4.6c28.8,0.2,57.5,1.5,86.2,4.1
		c37.9,3.3,75.5,8.6,112.5,17.6c20.1,4.9,39.9,11,58.8,19.7c10.6,4.9,20.8,10.6,29.6,18.5c5.4,4.8,10,10.4,12.6,17.2
		c3.8,9.8,2.3,19.1-3.2,27.9c-5,7.8-11.9,13.6-19.5,18.6c-10.8,7.2-22.5,12.5-34.6,17.1c-21.8,8.3-44.4,14-67.3,18.6
		c-23.6,4.8-47.4,8.2-71.3,10.7C396.2,178.8,359.3,180.5,322.3,180.6z"/>
</g>
<g>
	<path class="st0" d="M0,370.5c0-61.9,0-123.6,0-185.5c213.3,0,426.6,0,640,0c0,61.8,0,123.6,0,185.5
		C426.7,370.5,213.4,370.5,0,370.5z M322.3,365.7c37-0.1,73.9-1.9,110.6-5.8c23.9-2.5,47.7-6,71.3-10.7
		c22.9-4.6,45.4-10.3,67.3-18.6c12.1-4.6,23.8-10,34.6-17.1c7.6-5,14.5-10.8,19.5-18.6c5.5-8.8,7-18,3.2-27.9
		c-2.7-6.9-7.2-12.4-12.6-17.2c-8.8-7.9-19-13.6-29.6-18.5c-18.9-8.8-38.7-14.8-58.8-19.7c-37-9.1-74.6-14.3-112.5-17.6
		c-28.7-2.5-57.4-3.9-86.2-4.1c-56.5-0.4-112.8,3-168.7,12.1c-25.6,4.1-51,9.6-75.7,17.5c-15.2,4.9-30.1,10.6-44,18.7
		c-8.5,4.9-16.4,10.6-22.7,18.3c-10.9,13.2-11.2,27.9-1,41.5c5.8,7.7,13.3,13.3,21.4,18.2c15.1,9.1,31.4,15.4,48.2,20.7
		c20.4,6.4,41.2,11.1,62.2,14.9c28.5,5.2,57.2,8.6,86,10.8C264,364.7,293.1,365.7,322.3,365.7z"/>
	<path d="M322.3,365.7c-29.2,0-58.4-1-87.5-3.3c-28.9-2.2-57.6-5.7-86-10.8c-21-3.8-41.8-8.5-62.2-14.9c-16.7-5.3-33-11.5-48.2-20.7
		c-8.1-4.9-15.6-10.5-21.4-18.2c-10.3-13.6-9.9-28.4,1-41.5c6.3-7.7,14.2-13.4,22.7-18.3c13.9-8.1,28.8-13.8,44-18.7
		c24.8-8,50.1-13.4,75.7-17.5c55.9-9.1,112.2-12.4,168.7-12.1c28.8,0.2,57.5,1.5,86.2,4.1c37.9,3.3,75.5,8.6,112.5,17.6
		c20.1,4.9,39.9,11,58.8,19.7c10.6,4.9,20.8,10.6,29.6,18.5c5.4,4.9,10,10.4,12.6,17.2c3.8,9.8,2.3,19.1-3.2,27.9
		c-5,7.8-11.9,13.6-19.5,18.6c-10.8,7.2-22.5,12.5-34.6,17.1c-21.8,8.3-44.4,14-67.3,18.6c-23.6,4.8-47.4,8.2-71.3,10.7
		C396.2,363.8,359.3,365.6,322.3,365.7z"/>
</g>
<g>
	<path class="st0" d="M0,740.7c0-61.9,0-123.6,0-185.5c213.3,0,426.6,0,640,0c0,61.8,0,123.6,0,185.5
		C426.7,740.7,213.4,740.7,0,740.7z M322.3,735.9c37-0.1,73.9-1.9,110.6-5.8c23.9-2.5,47.7-6,71.3-10.7
		c22.9-4.6,45.4-10.3,67.3-18.6c12.1-4.6,23.8-10,34.6-17.1c7.6-5,14.5-10.8,19.5-18.7c5.5-8.8,7-18,3.2-27.9
		c-2.7-6.9-7.2-12.4-12.6-17.2c-8.8-7.9-19-13.6-29.6-18.5c-18.9-8.8-38.7-14.8-58.8-19.7c-37-9.1-74.6-14.3-112.5-17.6
		c-28.7-2.5-57.4-3.9-86.2-4c-56.5-0.3-112.8,3-168.7,12.1c-25.6,4.2-51,9.5-75.7,17.5c-15.2,4.9-30.1,10.7-44,18.7
		c-8.5,4.9-16.4,10.6-22.7,18.3c-10.9,13.2-11.2,27.9-1,41.5c5.8,7.7,13.3,13.3,21.4,18.2c15.1,9.2,31.4,15.4,48.2,20.7
		c20.4,6.4,41.2,11.1,62.2,14.9c28.5,5.2,57.2,8.6,86,10.8C264,734.9,293.1,735.9,322.3,735.9z"/>
	<path d="M322.3,735.9c-29.2,0-58.4-1-87.5-3.3c-28.9-2.2-57.6-5.7-86-10.8c-21-3.8-41.8-8.5-62.2-14.9c-16.7-5.3-33-11.5-48.2-20.7
		c-8.1-4.9-15.6-10.5-21.4-18.2c-10.3-13.6-9.9-28.3,1-41.5c6.3-7.7,14.2-13.4,22.7-18.3c13.9-8,28.8-13.8,44-18.7
		c24.8-8,50.1-13.4,75.7-17.5c55.9-9.1,112.2-12.4,168.7-12.1c28.8,0.2,57.5,1.5,86.2,4c37.9,3.3,75.5,8.6,112.5,17.6
		c20.1,4.9,39.9,11,58.8,19.7c10.6,4.9,20.8,10.6,29.6,18.5c5.4,4.8,10,10.4,12.6,17.2c3.8,9.8,2.3,19.1-3.2,27.9
		c-5,7.8-11.9,13.6-19.5,18.7c-10.8,7.2-22.5,12.5-34.6,17.1c-21.8,8.3-44.4,14-67.3,18.6c-23.6,4.8-47.4,8.2-71.3,10.7
		C396.2,734,359.3,735.8,322.3,735.9z"/>
</g>
<g>
	<path d="M0,555.5C0,493.6,0,431.8,0,370c213.3,0,426.6,0,640,0c0,61.8,0,123.6,0,185.5C426.7,555.5,213.4,555.5,0,555.5z
		 M322.3,550.6c37-0.1,73.9-1.9,110.6-5.8c23.9-2.5,47.7-6,71.3-10.7c22.9-4.6,45.4-10.3,67.3-18.6c12.1-4.6,23.8-10,34.6-17.1
		c7.6-5,14.5-10.8,19.5-18.6c5.5-8.8,7-18,3.2-27.9c-2.7-6.9-7.2-12.4-12.6-17.2c-8.8-7.9-19-13.6-29.6-18.5
		c-18.9-8.8-38.7-14.8-58.8-19.7c-37-9.1-74.6-14.3-112.5-17.6c-28.7-2.5-57.4-3.9-86.2-4c-56.5-0.4-112.8,3-168.7,12.1
		c-25.6,4.1-51,9.5-75.7,17.5c-15.2,4.9-30.1,10.6-44,18.7c-8.5,4.9-16.4,10.6-22.7,18.3c-10.9,13.2-11.2,27.9-1,41.5
		c5.8,7.7,13.3,13.3,21.4,18.2c15.1,9.1,31.4,15.4,48.2,20.7c20.4,6.4,41.2,11.1,62.2,14.9c28.5,5.2,57.2,8.6,86,10.8
		C264,549.6,293.1,550.7,322.3,550.6z"/>
	<path class="st0" d="M322.3,550.6c-29.2,0-58.4-1-87.5-3.3c-28.9-2.2-57.6-5.7-86-10.8c-21-3.8-41.8-8.5-62.2-14.9
		c-16.7-5.3-33-11.5-48.2-20.7c-8.1-4.9-15.6-10.5-21.4-18.2c-10.3-13.6-9.9-28.4,1-41.5c6.3-7.7,14.2-13.4,22.7-18.3
		c13.9-8,28.8-13.8,44-18.7c24.8-8,50.1-13.4,75.7-17.5c55.9-9.1,112.2-12.4,168.7-12.1c28.8,0.2,57.5,1.5,86.2,4
		c37.9,3.3,75.5,8.6,112.5,17.6c20.1,4.9,39.9,11,58.8,19.7c10.6,4.9,20.8,10.6,29.6,18.5c5.4,4.9,10,10.4,12.6,17.2
		c3.8,9.8,2.3,19.1-3.2,27.9c-5,7.8-11.9,13.6-19.5,18.6c-10.8,7.2-22.5,12.5-34.6,17.1c-21.8,8.3-44.4,14-67.3,18.6
		c-23.6,4.8-47.4,8.2-71.3,10.7C396.2,548.8,359.3,550.5,322.3,550.6z"/>
</g>
</svg>
