<?xml version="1.0" encoding="UTF-8"?>
<svg id="Layer_1" data-name="Layer 1" xmlns="http://www.w3.org/2000/svg" viewBox="0 0 50 75">
  <defs>
    <style>
      .cls-1 {
        fill: #fff;
      }
    </style>
  </defs>
  <path class="cls-1" d="M34.03,34.89l14.54.02c2.41.59,1.53,3.57-.86,3.17-2.37,5.93-7.32,18.34-7.57,18.85-.06.12-.14.22-.14.22-.22.29-.53.41-.79.54,0,0-.14.06-.29.11-1.28.41-14.22.16-14.22.16-7-.14-9.28.09-14.38-.01-.62-.01-1.18-.46-1.46-.99l-6.55-18.88c-2.32.4-3.32-2.47-.97-3.16l14.65-.03,3.39-7.55c.15-.45-.26-.75-.32-1.15-.16-.95.32-1.74.67-2.59.59-1.42,1.82-4.54,2.61-5.69.33-.48.86-.83,1.44-.9.57-.06,2.12-.07,2.66.03.46.08.97.49,1.24.87l3.27,7.26c.18.77-.14,1.35-.38,2.03l3.47,7.69ZM18.46,34.9h13.1l-3.03-6.82c-2.28-.47-2.48-3.16-3.46-4.87-.24-.05-.16.1-.23.24-.81,1.71-1.26,4.22-3.35,4.64l-3.03,6.82ZM14.02,38.06H5.83l1.4,4.09h7.37l-.58-4.09ZM23.96,42.16v-3.92l-.18-.18h-7.43l.58,4.09h7.02ZM33.78,38.06h-7.6v4.09h7.02l.58-4.09ZM44.19,38.06h-8.07l-.58,4.09h7.13l1.52-4.09ZM14.95,44.49h-6.78c.4,1.34.86,2.71,1.46,3.98h5.91l-.58-3.98ZM17.29,44.49l.76,3.98h5.73l.18-.18v-3.63l-.18-.18h-6.49ZM32.84,44.49h-6.67v3.8l.18.18h5.73l.15-.2.61-3.78ZM41.62,44.49h-6.37l-.15.2c.02,1.09-.57,2.52-.56,3.54,0,.14,0,.15.13.24h5.26l1.7-3.98ZM16.59,55.02l-.61-4.13-.15-.2h-5.44l1.52,4.33h4.68ZM18.93,55.02h4.85l.18-.18v-3.98l-.18-.18h-5.44l.58,4.33ZM31.79,50.69h-5.61v4.33h5.03l.58-4.33ZM39.04,50.69h-4.91l-.58,4.33h3.86l1.64-4.33Z"/>
</svg>