<?xml version="1.0" encoding="UTF-8"?>
<svg id="Layer_1" data-name="Layer 1" xmlns="http://www.w3.org/2000/svg" viewBox="0 0 170 135">
  <defs>
    <style>
      .cls-1 {
        fill: #231f20;
      }

      .cls-2 {
        fill: #fff;
      }
    </style>
  </defs>
  <g>
    <circle class="cls-2" cx="13.55" cy="40.36" r="11.5"/>
    <g>
      <path class="cls-1" d="M11.89,32.87c1.12-.01,2.25,0,3.36,0,1.81.02,3.49-.02,4.8,1.39,1.16,1.25,1.11,2.85,1.14,4.44.01,1.1.01,2.21,0,3.32-.02,1.77.02,3.43-1.41,4.71-1.27,1.14-2.91,1.09-4.53,1.11-1.13.01-2.26.01-3.39,0-1.81-.02-3.5.02-4.81-1.39-1.16-1.24-1.11-2.85-1.14-4.43-.02-1.11-.01-2.22,0-3.33.02-1.59-.03-3.2,1.14-4.45,1.31-1.4,3.04-1.37,4.84-1.39ZM11.57,34.23c-.99.02-2.25,0-3.09.59-1.21.86-1.16,2.25-1.18,3.57s-.02,2.65,0,3.97-.03,2.62,1.09,3.5c.85.67,2.1.63,3.14.65,1.35.02,2.7.02,4.05,0s2.62.03,3.53-1.02c.73-.84.68-2.08.7-3.13.02-1.32.02-2.65,0-3.97-.02-1.09.03-2.35-.78-3.21-.9-.97-2.22-.92-3.46-.94-1.33-.02-2.68-.03-4.01,0Z"/>
      <ellipse class="cls-1" cx="17.64" cy="36.36" rx=".92" ry=".9"/>
      <path class="cls-1" d="M17.48,40.36c0,2.13-1.76,3.85-3.93,3.85s-3.93-1.72-3.93-3.85,1.76-3.85,3.93-3.85,3.93,1.72,3.93,3.85ZM16.1,40.36c0-1.38-1.14-2.5-2.55-2.5s-2.55,1.12-2.55,2.5,1.14,2.5,2.55,2.5,2.55-1.12,2.55-2.5Z"/>
    </g>
  </g>
  <g>
    <circle class="cls-2" cx="13.55" cy="67.27" r="11.5"/>
    <path class="cls-1" d="M16.49,59.77c-.07,1.69,1.21,3.16,2.82,3.53.25.06.48.09.74.07v2.56c-1.28-.04-2.52-.39-3.56-1.14v5.47c-.11,2.21-1.85,4.17-4.05,4.47-.13.02-.26.01-.39.04-.2-.01-.42.01-.62,0-2.64-.18-4.61-2.56-4.36-5.19.26-2.67,2.68-4.59,5.34-4.25v2.62c-1.88-.59-3.52,1.38-2.58,3.13,1.02,1.91,3.94,1.26,4.08-.9v-10.41s2.58,0,2.58,0Z"/>
  </g>
  <g>
    <circle class="cls-2" cx="13.55" cy="94.68" r="11.5"/>
    <path class="cls-1" d="M15.96,86.39s.03,0,.04,0c.62,0,1.24.04,1.86.11v2.64h-1.69c-.43.02-.9.11-1.14.51-.17.28-.18.61-.19.93,0,.63,0,1.25,0,1.88h2.91l-.38,2.95h-2.53v7.56h-3.04v-7.56h-2.55v-2.95h2.55c0-.74,0-1.49,0-2.23,0-.92.23-1.85.82-2.58.67-.83,1.72-1.22,2.77-1.25h.02s.56,0,.56,0Z"/>
  </g>
  <g>
    <path class="cls-2" d="M33.99,40.76c.17-.44.48-.78.93-1.01.39-.2.81-.29,1.26-.25.48.04.87.2,1.16.48.35.34.51.76.48,1.27,0,.32,0,.65.03.98v.1c0,.07.01.15.01.23,0,.09,0,.15,0,.19.01.2.02.35.02.45.1.01.22,0,.34-.06.29-.11.48-.31.55-.58h0c.26-1.08.12-1.93-.42-2.58-.5-.58-1.16-.88-2.01-.9-.87-.03-1.59.23-2.18.8-.67.63-.96,1.53-.88,2.67v.06h0c.06.62.24,1.11.53,1.48.26.33.6.56,1.01.69.39.13.82.19,1.29.16.47-.03.93-.13,1.39-.3l.31.86c-.55.21-1.11.33-1.68.36-.57.03-1.11-.04-1.61-.2-.58-.2-1.06-.54-1.43-1-.41-.53-.65-1.18-.72-1.95h0s-.02-.07-.02-.1c-.1-1.43.29-2.56,1.15-3.39.37-.35.81-.62,1.3-.8.5-.18,1.01-.26,1.54-.25.53.02,1.03.14,1.5.35.47.21.86.51,1.17.89.74.88.94,2,.6,3.37,0,.01,0,.04-.02.08-.15.51-.49.88-1,1.11s-.99.23-1.42-.01c-.13.15-.26.27-.41.35-.32.2-.69.3-1.1.29-.39-.01-.75-.13-1.08-.36-.35-.27-.55-.62-.62-1.06v-.06c-.1-.65.06-1.17.46-1.57.36-.36.82-.53,1.38-.51.41.02.75.14,1.05.35v-.34h0c-.02-.17-.08-.29-.19-.39-.16-.15-.36-.23-.62-.25-.29-.02-.54.03-.77.15-.23.11-.39.29-.5.53l-.85-.33ZM34.93,43.1c.03.15.11.29.26.4.15.12.34.18.56.18.22.01.42-.03.58-.14.17-.11.28-.25.32-.44,0-.02,0-.03,0-.05.06-.34,0-.61-.16-.81-.16-.18-.39-.28-.68-.29-.29-.01-.53.07-.7.25-.19.19-.25.47-.19.83,0,.02,0,.04,0,.08Z"/>
    <path class="cls-2" d="M45.83,45.58v-6.88h-1.81v-1.46h5.07v1.46h-1.81v6.88h-1.46Z"/>
    <path class="cls-2" d="M52.77,41.32v4.26h-1.45v-8.35h1.45v2.62h1.46v-2.62h1.45v8.35h-1.45v-4.26h-1.46ZM52.77,39.86h1.46-1.46Z"/>
    <path class="cls-2" d="M58.7,37.23h4.27v1.46h-2.81v1.16h1.94v1.56h-1.94v2.71h3.3v1.45h-4.75v-8.35Z"/>
    <path class="cls-2" d="M69.81,38.6c-.13-.02-.26-.03-.39-.03-.37,0-.72.08-1.04.23-.32.15-.59.36-.82.62-.23.26-.41.57-.55.92-.13.35-.2.72-.2,1.12s.07.76.2,1.1c.13.34.32.64.55.89.23.25.51.45.82.59.32.14.66.21,1.04.21.26,0,.51-.04.75-.11v1.43c-.09.01-.19.03-.28.04-.08.01-.16.02-.24.03-.09,0-.16,0-.23,0-.56,0-1.08-.11-1.56-.33-.49-.22-.91-.52-1.27-.89s-.64-.82-.85-1.33c-.21-.51-.31-1.05-.31-1.63s.1-1.13.31-1.65.49-.97.85-1.36c.36-.39.78-.7,1.27-.93.48-.23,1.01-.34,1.56-.34.07,0,.15,0,.23,0,.08,0,.17.02.24.03.09.01.18.03.28.04v1.44c-.11-.04-.23-.07-.36-.09Z"/>
    <path class="cls-2" d="M72.24,39.8c.2-.52.47-.97.82-1.36.35-.39.76-.7,1.24-.93.48-.23.99-.34,1.55-.34s1.08.11,1.55.34c.48.23.89.54,1.24.93.35.39.62.84.82,1.36s.29,1.07.29,1.65-.1,1.13-.29,1.63c-.2.51-.47.95-.82,1.33s-.76.67-1.24.89-1,.33-1.55.33-1.07-.11-1.55-.33-.89-.52-1.24-.89-.62-.82-.82-1.33c-.2-.51-.29-1.05-.29-1.63s.1-1.13.29-1.65ZM73.59,42.52c.12.33.29.62.5.86.21.24.47.43.76.57.3.14.63.21.99.21s.69-.07.99-.21c.3-.14.56-.33.77-.57.21-.24.38-.53.5-.86.12-.33.18-.69.18-1.07s-.06-.74-.18-1.08c-.12-.34-.29-.64-.5-.89-.21-.25-.47-.45-.77-.6s-.63-.22-.99-.22-.69.07-.99.22-.55.35-.76.6c-.21.25-.38.55-.5.89-.12.34-.18.7-.18,1.08s.06.74.18,1.07Z"/>
    <path class="cls-2" d="M87.76,37.22v8.36h-1.46v-5.35l-1.36,1.55-1.25-1.55v5.35h-1.45v-8.36h1.26l1.44,2.13,1.46-2.13h1.36Z"/>
    <path class="cls-2" d="M92.23,45.58h-1.45v-8.35h1.45v8.35Z"/>
    <path class="cls-2" d="M96.7,45.58h-1.45v-8.55l3.48,4.43v-4.23h1.45v8.54l-3.48-4.43v4.24Z"/>
    <path class="cls-2" d="M105.71,38.92c-.32.14-.59.33-.81.58-.22.25-.39.54-.51.88s-.18.72-.18,1.13c0,.77.19,1.37.56,1.8.37.43.92.69,1.64.79v-2.59h-.85v-1.44h2.2v5.47c-.15.05-.29.08-.44.09-.15,0-.33,0-.53,0-.57,0-1.11-.1-1.61-.3-.5-.2-.94-.49-1.31-.86-.37-.37-.66-.8-.88-1.3-.22-.5-.32-1.05-.32-1.65s.11-1.17.32-1.69c.21-.53.51-.98.88-1.37s.81-.7,1.31-.92c.5-.23,1.04-.34,1.61-.34.2,0,.38,0,.53,0,.15,0,.3.03.44.08v1.54c-.15-.05-.29-.08-.44-.09-.15,0-.33-.01-.53-.01-.41,0-.77.07-1.09.21Z"/>
    <path class="cls-2" d="M110.08,39.8c.2-.52.47-.97.82-1.36.35-.39.76-.7,1.24-.93.48-.23.99-.34,1.55-.34s1.08.11,1.55.34c.48.23.89.54,1.24.93.35.39.62.84.82,1.36s.29,1.07.29,1.65-.1,1.13-.29,1.63c-.2.51-.47.95-.82,1.33s-.76.67-1.24.89-1,.33-1.55.33-1.07-.11-1.55-.33-.89-.52-1.24-.89-.62-.82-.82-1.33c-.2-.51-.29-1.05-.29-1.63s.1-1.13.29-1.65ZM111.43,42.52c.12.33.29.62.5.86.21.24.47.43.76.57.3.14.63.21.99.21s.69-.07.99-.21c.3-.14.56-.33.77-.57.21-.24.38-.53.5-.86.12-.33.18-.69.18-1.07s-.06-.74-.18-1.08c-.12-.34-.29-.64-.5-.89-.21-.25-.47-.45-.77-.6s-.63-.22-.99-.22-.69.07-.99.22-.55.35-.76.6c-.21.25-.38.55-.5.89-.12.34-.18.7-.18,1.08s.06.74.18,1.07Z"/>
    <path class="cls-2" d="M120.08,45.58v-8.35h4.46v1.46h-3v1.16h1.95v1.56h-1.95v4.16h-1.45Z"/>
    <path class="cls-2" d="M127.83,43.27c.08.19.19.35.31.49.13.14.28.25.46.33s.38.12.61.12c.29,0,.53-.05.72-.14s.34-.22.46-.37c.11-.15.19-.32.24-.5.04-.18.07-.36.07-.53,0-.25-.08-.47-.23-.67-.15-.2-.34-.38-.58-.56s-.48-.35-.75-.52c-.27-.17-.52-.36-.75-.56-.23-.2-.42-.42-.57-.67-.15-.24-.23-.52-.23-.84,0-.23.05-.46.15-.67.1-.21.23-.4.4-.56.17-.16.36-.29.58-.38.21-.1.44-.14.67-.14s.46.05.68.14c.22.1.42.22.59.38.17.16.31.34.42.56.1.21.16.44.16.67h-1.37c0-.11-.04-.21-.12-.29-.08-.08-.18-.12-.3-.12-.11,0-.2.04-.29.12-.08.08-.12.18-.12.29,0,.15.08.3.24.43.16.14.36.28.59.43.24.15.49.32.77.5.28.18.53.39.77.63.24.24.44.51.59.81.16.3.24.66.24,1.06,0,.32-.06.66-.18,1.01s-.3.67-.54.95c-.24.29-.54.52-.9.71s-.78.28-1.25.28-.91-.08-1.28-.23c-.37-.15-.69-.36-.96-.63-.27-.27-.48-.58-.63-.95-.16-.37-.25-.77-.3-1.21h1.45c.03.22.08.42.16.61Z"/>
    <path class="cls-2" d="M135.73,45.58v-6.88h-1.81v-1.46h5.07v1.46h-1.81v6.88h-1.46Z"/>
    <path class="cls-2" d="M141.51,45.57h-1.45l3.08-8.55,3.08,8.55h-1.45l-.52-1.45h-2.22l-.52,1.45ZM143.74,42.66l-.59-1.64-.58,1.64h1.17Z"/>
    <path class="cls-2" d="M150.6,38.92c-.32.14-.59.33-.81.58-.22.25-.39.54-.51.88s-.18.72-.18,1.13c0,.77.19,1.37.56,1.8.37.43.92.69,1.64.79v-2.59h-.85v-1.44h2.2v5.47c-.15.05-.29.08-.44.09-.15,0-.33,0-.53,0-.57,0-1.11-.1-1.61-.3-.5-.2-.94-.49-1.31-.86-.37-.37-.66-.8-.88-1.3-.22-.5-.32-1.05-.32-1.65s.11-1.17.32-1.69c.21-.53.51-.98.88-1.37s.81-.7,1.31-.92c.5-.23,1.04-.34,1.61-.34.2,0,.38,0,.53,0,.15,0,.3.03.44.08v1.54c-.15-.05-.29-.08-.44-.09-.15,0-.33-.01-.53-.01-.41,0-.77.07-1.09.21Z"/>
    <path class="cls-2" d="M155.21,37.23h4.27v1.46h-2.81v1.16h1.94v1.56h-1.94v2.71h3.3v1.45h-4.75v-8.35Z"/>
    <path class="cls-2" d="M163.41,43.27c.08.19.19.35.31.49.13.14.28.25.46.33s.38.12.61.12c.29,0,.53-.05.72-.14s.34-.22.46-.37c.11-.15.19-.32.24-.5.04-.18.07-.36.07-.53,0-.25-.08-.47-.23-.67-.15-.2-.34-.38-.58-.56s-.48-.35-.75-.52c-.27-.17-.52-.36-.75-.56-.23-.2-.42-.42-.57-.67-.15-.24-.23-.52-.23-.84,0-.23.05-.46.15-.67.1-.21.23-.4.4-.56.17-.16.36-.29.58-.38.21-.1.44-.14.67-.14s.46.05.68.14c.22.1.42.22.59.38.17.16.31.34.42.56.1.21.16.44.16.67h-1.37c0-.11-.04-.21-.12-.29-.08-.08-.18-.12-.3-.12-.11,0-.2.04-.29.12-.08.08-.12.18-.12.29,0,.15.08.3.24.43.16.14.36.28.59.43.24.15.49.32.77.5.28.18.53.39.77.63.24.24.44.51.59.81.16.3.24.66.24,1.06,0,.32-.06.66-.18,1.01s-.3.67-.54.95c-.24.29-.54.52-.9.71s-.78.28-1.25.28-.91-.08-1.28-.23c-.37-.15-.69-.36-.96-.63-.27-.27-.48-.58-.63-.95-.16-.37-.25-.77-.3-1.21h1.45c.03.22.08.42.16.61Z"/>
  </g>
  <g>
    <path class="cls-2" d="M34.15,99.78v-6.88h-1.81v-1.46h5.07v1.46h-1.81v6.88h-1.46Z"/>
    <path class="cls-2" d="M41.09,95.52v4.26h-1.45v-8.35h1.45v2.62h1.46v-2.62h1.45v8.35h-1.45v-4.26h-1.46ZM41.09,94.05h1.46-1.46Z"/>
    <path class="cls-2" d="M47.02,91.43h4.27v1.46h-2.81v1.16h1.94v1.56h-1.94v2.71h3.3v1.45h-4.75v-8.35Z"/>
    <path class="cls-2" d="M60.74,92.79c-.13-.02-.26-.03-.39-.03-.37,0-.72.08-1.04.23-.32.15-.59.36-.82.62-.23.26-.41.57-.55.92-.13.35-.2.72-.2,1.12s.07.76.2,1.1c.13.34.32.64.55.89.23.25.51.45.82.59.32.14.66.21,1.04.21.26,0,.51-.04.75-.11v1.43c-.09.01-.19.02-.28.04-.08.01-.16.02-.24.03-.09,0-.16,0-.23,0-.56,0-1.08-.11-1.56-.33-.49-.22-.91-.52-1.27-.89-.36-.38-.64-.82-.85-1.33-.21-.51-.31-1.05-.31-1.64s.1-1.13.31-1.65.49-.97.85-1.36.78-.7,1.27-.93c.48-.23,1.01-.34,1.56-.34.07,0,.15,0,.23,0,.08,0,.17.02.24.03.09.01.18.03.28.04v1.44c-.11-.04-.23-.07-.36-.09Z"/>
    <path class="cls-2" d="M63.17,94c.2-.52.47-.97.82-1.36s.76-.7,1.24-.93c.48-.23.99-.34,1.55-.34s1.08.11,1.55.34c.48.23.89.54,1.24.93s.62.84.82,1.36.29,1.07.29,1.65-.1,1.13-.29,1.64c-.2.51-.47.95-.82,1.33-.35.38-.76.67-1.24.89-.48.22-1,.33-1.55.33s-1.07-.11-1.55-.33c-.48-.22-.89-.52-1.24-.89-.35-.38-.62-.82-.82-1.33-.2-.51-.29-1.05-.29-1.64s.1-1.13.29-1.65ZM64.52,96.72c.12.33.29.62.5.86.21.24.47.43.76.57.3.14.63.21.99.21s.69-.07.99-.21c.3-.14.56-.33.77-.57.21-.24.38-.53.5-.86.12-.33.18-.69.18-1.07s-.06-.74-.18-1.08c-.12-.34-.29-.64-.5-.89-.21-.25-.47-.46-.77-.6-.3-.15-.63-.22-.99-.22s-.69.07-.99.22c-.3.15-.55.35-.76.6-.21.25-.38.55-.5.89-.12.34-.18.7-.18,1.08s.06.74.18,1.07Z"/>
    <path class="cls-2" d="M78.69,91.42v8.36h-1.46v-5.35l-1.36,1.55-1.25-1.55v5.35h-1.45v-8.36h1.26l1.44,2.13,1.46-2.13h1.36Z"/>
    <path class="cls-2" d="M83.17,99.78h-1.45v-8.35h1.45v8.35Z"/>
    <path class="cls-2" d="M87.64,99.78h-1.45v-8.55l3.48,4.43v-4.23h1.45v8.54l-3.48-4.43v4.24Z"/>
    <path class="cls-2" d="M96.64,93.12c-.32.14-.59.33-.81.58-.22.25-.39.54-.51.88s-.18.72-.18,1.13c0,.77.19,1.37.56,1.8.37.43.92.69,1.64.79v-2.59h-.85v-1.44h2.2v5.47c-.15.05-.29.08-.44.09-.15,0-.33,0-.53,0-.57,0-1.11-.1-1.61-.3-.5-.2-.94-.49-1.31-.86-.37-.37-.66-.8-.88-1.3-.22-.5-.32-1.05-.32-1.65s.11-1.17.32-1.69c.21-.53.51-.98.88-1.37.37-.39.81-.7,1.31-.92.5-.23,1.04-.34,1.61-.34.2,0,.38,0,.53,0,.15,0,.3.03.44.08v1.54c-.15-.05-.29-.08-.44-.09-.15,0-.33-.01-.53-.01-.41,0-.77.07-1.09.21Z"/>
    <path class="cls-2" d="M103.63,94c.2-.52.47-.97.82-1.36s.76-.7,1.24-.93c.48-.23.99-.34,1.55-.34s1.08.11,1.55.34c.48.23.89.54,1.24.93s.62.84.82,1.36.29,1.07.29,1.65-.1,1.13-.29,1.64c-.2.51-.47.95-.82,1.33-.35.38-.76.67-1.24.89-.48.22-1,.33-1.55.33s-1.07-.11-1.55-.33c-.48-.22-.89-.52-1.24-.89-.35-.38-.62-.82-.82-1.33-.2-.51-.29-1.05-.29-1.64s.1-1.13.29-1.65ZM104.98,96.72c.12.33.29.62.5.86.21.24.47.43.76.57.3.14.63.21.99.21s.69-.07.99-.21c.3-.14.56-.33.77-.57.21-.24.38-.53.5-.86.12-.33.18-.69.18-1.07s-.06-.74-.18-1.08c-.12-.34-.29-.64-.5-.89-.21-.25-.47-.46-.77-.6-.3-.15-.63-.22-.99-.22s-.69.07-.99.22c-.3.15-.55.35-.76.6-.21.25-.38.55-.5.89-.12.34-.18.7-.18,1.08s.06.74.18,1.07Z"/>
    <path class="cls-2" d="M113.63,99.78v-8.35h4.46v1.46h-3v1.16h1.95v1.56h-1.95v4.16h-1.45Z"/>
    <path class="cls-2" d="M124,97.47c.08.19.19.35.31.49.13.14.28.25.46.33.18.08.38.12.61.12.29,0,.53-.05.72-.14.19-.09.34-.22.46-.37.11-.15.19-.32.24-.5.04-.18.07-.36.07-.53,0-.25-.08-.47-.23-.67-.15-.2-.34-.38-.58-.56-.23-.17-.48-.35-.75-.52-.27-.17-.52-.36-.75-.56-.23-.2-.42-.42-.57-.67-.15-.24-.23-.52-.23-.84,0-.24.05-.46.15-.67.1-.21.23-.4.4-.56s.36-.29.58-.38c.21-.09.44-.14.67-.14s.46.05.68.14c.22.1.42.22.59.38s.31.34.42.56c.1.21.16.44.16.67h-1.37c0-.11-.04-.21-.12-.29-.08-.08-.18-.12-.3-.12-.11,0-.2.04-.29.12-.08.08-.12.18-.12.29,0,.15.08.3.24.43.16.14.36.28.59.43.24.15.49.32.77.5.28.18.53.39.77.63s.44.51.59.81c.16.3.24.66.24,1.06,0,.32-.06.66-.18,1.01-.12.35-.3.67-.54.95-.24.29-.54.52-.9.71-.36.19-.78.28-1.25.28s-.91-.08-1.28-.23c-.37-.15-.69-.36-.96-.63-.27-.27-.48-.58-.63-.95-.16-.37-.25-.77-.3-1.21h1.45c.03.21.08.42.16.61Z"/>
    <path class="cls-2" d="M131.89,99.78v-6.88h-1.81v-1.46h5.07v1.46h-1.81v6.88h-1.46Z"/>
    <path class="cls-2" d="M137.68,99.77h-1.45l3.08-8.55,3.08,8.55h-1.45l-.52-1.45h-2.22l-.52,1.45ZM139.9,96.86l-.59-1.64-.58,1.64h1.17Z"/>
    <path class="cls-2" d="M146.77,93.12c-.32.14-.59.33-.81.58-.22.25-.39.54-.51.88s-.18.72-.18,1.13c0,.77.19,1.37.56,1.8.37.43.92.69,1.64.79v-2.59h-.85v-1.44h2.2v5.47c-.15.05-.29.08-.44.09-.15,0-.33,0-.53,0-.57,0-1.11-.1-1.61-.3-.5-.2-.94-.49-1.31-.86-.37-.37-.66-.8-.88-1.3-.22-.5-.32-1.05-.32-1.65s.11-1.17.32-1.69c.21-.53.51-.98.88-1.37s.81-.7,1.31-.92c.5-.23,1.04-.34,1.61-.34.2,0,.38,0,.53,0,.15,0,.3.03.44.08v1.54c-.15-.05-.29-.08-.44-.09-.15,0-.33-.01-.53-.01-.41,0-.77.07-1.09.21Z"/>
    <path class="cls-2" d="M151.38,91.43h4.27v1.46h-2.81v1.16h1.94v1.56h-1.94v2.71h3.3v1.45h-4.75v-8.35Z"/>
    <path class="cls-2" d="M159.58,97.47c.08.19.19.35.31.49.13.14.28.25.46.33.18.08.38.12.61.12.29,0,.53-.05.72-.14.19-.09.34-.22.46-.37.11-.15.19-.32.24-.5.04-.18.07-.36.07-.53,0-.25-.08-.47-.23-.67-.15-.2-.34-.38-.58-.56-.23-.17-.48-.35-.75-.52-.27-.17-.52-.36-.75-.56-.23-.2-.42-.42-.58-.67-.15-.24-.23-.52-.23-.84,0-.24.05-.46.15-.67.1-.21.23-.4.4-.56s.36-.29.58-.38c.21-.09.44-.14.67-.14s.46.05.68.14c.22.1.42.22.59.38s.31.34.42.56c.1.21.16.44.16.67h-1.37c0-.11-.04-.21-.12-.29-.08-.08-.18-.12-.3-.12-.11,0-.2.04-.29.12-.08.08-.12.18-.12.29,0,.15.08.3.24.43.16.14.36.28.59.43.24.15.49.32.77.5.28.18.53.39.77.63s.44.51.59.81c.16.3.24.66.24,1.06,0,.32-.06.66-.18,1.01-.12.35-.3.67-.54.95-.24.29-.54.52-.9.71-.36.19-.78.28-1.25.28s-.91-.08-1.28-.23c-.37-.15-.69-.36-.96-.63-.27-.27-.48-.58-.63-.95-.16-.37-.25-.77-.3-1.21h1.45c.03.21.08.42.16.61Z"/>
  </g>
  <g>
    <path class="cls-2" d="M33.99,67.76c.17-.44.48-.78.93-1.01.39-.2.81-.29,1.26-.25.48.04.87.2,1.16.48.35.34.51.76.48,1.27,0,.32,0,.65.03.98v.1c0,.07.01.15.01.23,0,.09,0,.15,0,.19.01.2.02.35.02.45.1.01.22,0,.34-.06.29-.11.48-.31.55-.58h0c.26-1.08.12-1.93-.42-2.58-.5-.58-1.16-.88-2.01-.9-.87-.03-1.59.23-2.18.8-.67.63-.96,1.53-.88,2.67v.06h0c.06.62.24,1.11.53,1.48.26.33.6.56,1.01.69.39.13.82.19,1.29.16.47-.03.93-.13,1.39-.3l.31.86c-.55.21-1.11.33-1.68.36-.57.03-1.11-.04-1.61-.2-.58-.2-1.06-.54-1.43-1-.41-.53-.65-1.18-.72-1.95h0s-.02-.07-.02-.1c-.1-1.43.29-2.56,1.15-3.39.37-.35.81-.62,1.3-.8.5-.18,1.01-.26,1.54-.25.53.02,1.03.14,1.5.35.47.21.86.51,1.17.89.74.88.94,2,.6,3.37,0,.01,0,.04-.02.08-.15.51-.49.88-1,1.11s-.99.23-1.42-.01c-.13.15-.26.27-.41.35-.32.2-.69.3-1.1.29-.39-.01-.75-.13-1.08-.36-.35-.27-.55-.62-.62-1.06v-.06c-.1-.65.06-1.17.46-1.57.36-.36.82-.53,1.38-.51.41.02.75.14,1.05.35v-.34h0c-.02-.17-.08-.29-.19-.39-.16-.15-.36-.23-.62-.25-.29-.02-.54.03-.77.15-.23.11-.39.29-.5.53l-.85-.33ZM34.93,70.1c.03.15.11.29.26.4.15.12.34.18.56.18.22.01.42-.03.58-.14.17-.11.28-.25.32-.44,0-.02,0-.03,0-.05.06-.34,0-.61-.16-.81-.16-.18-.39-.28-.68-.29-.29-.01-.53.07-.7.25-.19.19-.25.47-.19.83,0,.02,0,.04,0,.08Z"/>
    <path class="cls-2" d="M45.83,72.57v-6.88h-1.81v-1.46h5.07v1.46h-1.81v6.88h-1.46Z"/>
    <path class="cls-2" d="M52.77,68.31v4.26h-1.45v-8.35h1.45v2.62h1.46v-2.62h1.45v8.35h-1.45v-4.26h-1.46ZM52.77,66.85h1.46-1.46Z"/>
    <path class="cls-2" d="M58.7,64.23h4.27v1.46h-2.81v1.16h1.94v1.56h-1.94v2.71h3.3v1.46h-4.75v-8.35Z"/>
    <path class="cls-2" d="M69.81,65.59c-.13-.02-.26-.03-.39-.03-.37,0-.72.08-1.04.23-.32.15-.59.36-.82.62-.23.26-.41.57-.55.92-.13.35-.2.72-.2,1.12s.07.76.2,1.1c.13.34.32.64.55.89.23.25.51.45.82.59.32.14.66.21,1.04.21.26,0,.51-.04.75-.11v1.43c-.09.01-.19.03-.28.04-.08.01-.16.02-.24.03-.09,0-.16,0-.23,0-.56,0-1.08-.11-1.56-.33-.49-.22-.91-.52-1.27-.89s-.64-.82-.85-1.33c-.21-.51-.31-1.05-.31-1.63s.1-1.13.31-1.65.49-.97.85-1.36c.36-.39.78-.7,1.27-.93.48-.23,1.01-.34,1.56-.34.07,0,.15,0,.23,0,.08,0,.17.02.24.03.09.01.18.03.28.04v1.44c-.11-.04-.23-.07-.36-.09Z"/>
    <path class="cls-2" d="M72.24,66.8c.2-.52.47-.97.82-1.36.35-.39.76-.7,1.24-.93.48-.23.99-.34,1.55-.34s1.08.11,1.55.34c.48.23.89.54,1.24.93.35.39.62.84.82,1.36s.29,1.07.29,1.65-.1,1.13-.29,1.63c-.2.51-.47.95-.82,1.33s-.76.67-1.24.89-1,.33-1.55.33-1.07-.11-1.55-.33-.89-.52-1.24-.89-.62-.82-.82-1.33c-.2-.51-.29-1.05-.29-1.63s.1-1.13.29-1.65ZM73.59,69.52c.12.33.29.62.5.86.21.24.47.43.76.57.3.14.63.21.99.21s.69-.07.99-.21c.3-.14.56-.33.77-.57.21-.24.38-.53.5-.86.12-.33.18-.69.18-1.07s-.06-.74-.18-1.08c-.12-.34-.29-.64-.5-.89-.21-.25-.47-.45-.77-.6s-.63-.22-.99-.22-.69.07-.99.22-.55.35-.76.6c-.21.25-.38.55-.5.89-.12.34-.18.7-.18,1.08s.06.74.18,1.07Z"/>
    <path class="cls-2" d="M87.76,64.22v8.36h-1.46v-5.35l-1.36,1.55-1.25-1.55v5.35h-1.45v-8.36h1.26l1.44,2.13,1.46-2.13h1.36Z"/>
    <path class="cls-2" d="M92.23,72.57h-1.45v-8.35h1.45v8.35Z"/>
    <path class="cls-2" d="M96.7,72.57h-1.45v-8.55l3.48,4.43v-4.23h1.45v8.54l-3.48-4.43v4.24Z"/>
    <path class="cls-2" d="M105.71,65.92c-.32.14-.59.33-.81.58-.22.25-.39.54-.51.88s-.18.72-.18,1.13c0,.77.19,1.37.56,1.8.37.43.92.69,1.64.79v-2.59h-.85v-1.44h2.2v5.47c-.15.05-.29.08-.44.09-.15,0-.33,0-.53,0-.57,0-1.11-.1-1.61-.3-.5-.2-.94-.49-1.31-.85-.37-.37-.66-.8-.88-1.3-.22-.5-.32-1.05-.32-1.65s.11-1.17.32-1.69c.21-.53.51-.98.88-1.37.37-.39.81-.7,1.31-.92.5-.23,1.04-.34,1.61-.34.2,0,.38,0,.53,0,.15,0,.3.03.44.08v1.54c-.15-.05-.29-.08-.44-.09-.15,0-.33-.01-.53-.01-.41,0-.77.07-1.09.21Z"/>
    <path class="cls-2" d="M110.08,66.8c.2-.52.47-.97.82-1.36.35-.39.76-.7,1.24-.93.48-.23.99-.34,1.55-.34s1.08.11,1.55.34c.48.23.89.54,1.24.93.35.39.62.84.82,1.36s.29,1.07.29,1.65-.1,1.13-.29,1.63c-.2.51-.47.95-.82,1.33s-.76.67-1.24.89-1,.33-1.55.33-1.07-.11-1.55-.33-.89-.52-1.24-.89-.62-.82-.82-1.33c-.2-.51-.29-1.05-.29-1.63s.1-1.13.29-1.65ZM111.43,69.52c.12.33.29.62.5.86.21.24.47.43.76.57.3.14.63.21.99.21s.69-.07.99-.21c.3-.14.56-.33.77-.57.21-.24.38-.53.5-.86.12-.33.18-.69.18-1.07s-.06-.74-.18-1.08c-.12-.34-.29-.64-.5-.89-.21-.25-.47-.45-.77-.6s-.63-.22-.99-.22-.69.07-.99.22-.55.35-.76.6c-.21.25-.38.55-.5.89-.12.34-.18.7-.18,1.08s.06.74.18,1.07Z"/>
    <path class="cls-2" d="M120.08,72.57v-8.35h4.46v1.46h-3v1.16h1.95v1.56h-1.95v4.16h-1.45Z"/>
    <path class="cls-2" d="M127.83,70.26c.08.19.19.35.31.49.13.14.28.25.46.33s.38.12.61.12c.29,0,.53-.05.72-.14s.34-.22.46-.37c.11-.15.19-.32.24-.5.04-.18.07-.36.07-.53,0-.25-.08-.47-.23-.67-.15-.2-.34-.38-.58-.56s-.48-.35-.75-.52c-.27-.17-.52-.36-.75-.56-.23-.2-.42-.42-.58-.67-.15-.24-.23-.52-.23-.84,0-.23.05-.46.15-.67.1-.21.23-.4.4-.56.17-.16.36-.29.58-.38.21-.1.44-.14.67-.14s.46.05.68.14c.22.1.42.22.59.38.17.16.31.34.42.56.1.21.16.44.16.67h-1.37c0-.11-.04-.21-.12-.29-.08-.08-.18-.12-.3-.12-.11,0-.2.04-.29.12-.08.08-.12.18-.12.29,0,.15.08.3.24.43.16.14.36.28.59.43.24.15.49.32.77.5.28.18.53.39.77.63.24.24.44.51.59.81.16.3.24.66.24,1.06,0,.32-.06.66-.18,1.01s-.3.67-.54.95c-.24.28-.54.52-.9.71-.36.19-.78.28-1.25.28s-.91-.08-1.28-.23c-.37-.15-.69-.36-.96-.63-.27-.27-.48-.58-.63-.95-.16-.37-.25-.77-.3-1.21h1.45c.03.22.08.42.16.61Z"/>
    <path class="cls-2" d="M135.73,72.57v-6.88h-1.81v-1.46h5.07v1.46h-1.81v6.88h-1.46Z"/>
    <path class="cls-2" d="M141.51,72.56h-1.45l3.08-8.55,3.08,8.55h-1.45l-.52-1.45h-2.22l-.52,1.45ZM143.74,69.65l-.59-1.64-.58,1.64h1.17Z"/>
    <path class="cls-2" d="M150.6,65.92c-.32.14-.59.33-.81.58-.22.25-.39.54-.51.88s-.18.72-.18,1.13c0,.77.19,1.37.56,1.8.37.43.92.69,1.64.79v-2.59h-.85v-1.44h2.2v5.47c-.15.05-.29.08-.44.09-.15,0-.33,0-.53,0-.57,0-1.11-.1-1.61-.3-.5-.2-.94-.49-1.31-.85-.37-.37-.66-.8-.88-1.3-.22-.5-.32-1.05-.32-1.65s.11-1.17.32-1.69c.21-.53.51-.98.88-1.37.37-.39.81-.7,1.31-.92.5-.23,1.04-.34,1.61-.34.2,0,.38,0,.53,0,.15,0,.3.03.44.08v1.54c-.15-.05-.29-.08-.44-.09-.15,0-.33-.01-.53-.01-.41,0-.77.07-1.09.21Z"/>
    <path class="cls-2" d="M155.21,64.23h4.27v1.46h-2.81v1.16h1.94v1.56h-1.94v2.71h3.3v1.46h-4.75v-8.35Z"/>
    <path class="cls-2" d="M163.41,70.26c.08.19.19.35.31.49.13.14.28.25.46.33s.38.12.61.12c.29,0,.53-.05.72-.14s.34-.22.46-.37c.11-.15.19-.32.24-.5.04-.18.07-.36.07-.53,0-.25-.08-.47-.23-.67-.15-.2-.34-.38-.58-.56s-.48-.35-.75-.52c-.27-.17-.52-.36-.75-.56-.23-.2-.42-.42-.58-.67-.15-.24-.23-.52-.23-.84,0-.23.05-.46.15-.67.1-.21.23-.4.4-.56.17-.16.36-.29.58-.38.21-.1.44-.14.67-.14s.46.05.68.14c.22.1.42.22.59.38.17.16.31.34.42.56.1.21.16.44.16.67h-1.37c0-.11-.04-.21-.12-.29-.08-.08-.18-.12-.3-.12-.11,0-.2.04-.29.12-.08.08-.12.18-.12.29,0,.15.08.3.24.43.16.14.36.28.59.43.24.15.49.32.77.5.28.18.53.39.77.63.24.24.44.51.59.81.16.3.24.66.24,1.06,0,.32-.06.66-.18,1.01s-.3.67-.54.95c-.24.28-.54.52-.9.71-.36.19-.78.28-1.25.28s-.91-.08-1.28-.23c-.37-.15-.69-.36-.96-.63-.27-.27-.48-.58-.63-.95-.16-.37-.25-.77-.3-1.21h1.45c.03.22.08.42.16.61Z"/>
  </g>
</svg>